<?xml version="1.0" encoding="UTF-8"?>
<svg xmlns="http://www.w3.org/2000/svg" width="360" height="720" viewBox="0 0 360 720" style="background:#1a1a20;font-family:monospace;font-size:9px;">
<text x="24" y="18" fill="#aaa">female — FRONT view</text>
<line x1="24" y1="58.5" x2="336" y2="58.5" stroke="#3a3a45" stroke-width="0.5" stroke-dasharray="2 3"/>
<text x="338" y="57.5" fill="#5a5a70">0H</text>
<line x1="24" y1="136.0" x2="336" y2="136.0" stroke="#3a3a45" stroke-width="0.5" stroke-dasharray="2 3"/>
<text x="338" y="135.0" fill="#5a5a70">1H</text>
<line x1="24" y1="213.5" x2="336" y2="213.5" stroke="#3a3a45" stroke-width="0.5" stroke-dasharray="2 3"/>
<text x="338" y="212.5" fill="#5a5a70">2H</text>
<line x1="24" y1="291.1" x2="336" y2="291.1" stroke="#3a3a45" stroke-width="0.5" stroke-dasharray="2 3"/>
<text x="338" y="290.1" fill="#5a5a70">3H</text>
<line x1="24" y1="368.6" x2="336" y2="368.6" stroke="#3a3a45" stroke-width="0.5" stroke-dasharray="2 3"/>
<text x="338" y="367.6" fill="#5a5a70">4H</text>
<line x1="24" y1="446.2" x2="336" y2="446.2" stroke="#3a3a45" stroke-width="0.5" stroke-dasharray="2 3"/>
<text x="338" y="445.2" fill="#5a5a70">5H</text>
<line x1="24" y1="523.7" x2="336" y2="523.7" stroke="#3a3a45" stroke-width="0.5" stroke-dasharray="2 3"/>
<text x="338" y="522.7" fill="#5a5a70">6H</text>
<line x1="24" y1="601.2" x2="336" y2="601.2" stroke="#3a3a45" stroke-width="0.5" stroke-dasharray="2 3"/>
<text x="338" y="600.2" fill="#5a5a70">7H</text>
<line x1="24" y1="678.8" x2="336" y2="678.8" stroke="#3a3a45" stroke-width="0.5" stroke-dasharray="2 3"/>
<text x="338" y="677.8" fill="#5a5a70">8H</text>
<line x1="180.0" y1="24" x2="180.0" y2="696" stroke="#2a2a32" stroke-width="0.4"/>
<path d="M 353.3,58.5 L 356.7,58.5 L 359.6,58.5 L 361.5,58.5 L 362.2,58.5 L 361.5,58.5 L 359.6,58.5 L 356.7,58.5 L 353.3,58.5 L 349.9,58.5 L 347.0,58.5 L 345.1,58.5 L 344.4,58.5 L 345.1,58.5 L 347.0,58.5 L 349.9,58.5 L 353.3,58.5" stroke="#6a8aa8" stroke-width="0.5" fill="none" opacity="0.55"/>
<path d="M 353.3,65.4 L 360.4,65.4 L 366.3,65.4 L 370.3,65.4 L 371.7,65.4 L 370.3,65.4 L 366.3,65.4 L 360.4,65.4 L 353.3,65.4 L 346.3,65.4 L 340.3,65.4 L 336.4,65.4 L 335.0,65.4 L 336.4,65.4 L 340.3,65.4 L 346.3,65.4 L 353.3,65.4" stroke="#6a8aa8" stroke-width="0.5" fill="none" opacity="0.55"/>
<path d="M 353.3,66.2 L 364.4,66.2 L 373.9,66.2 L 380.2,66.2 L 382.4,66.2 L 380.2,66.2 L 373.9,66.2 L 364.4,66.2 L 353.3,66.2 L 342.2,66.2 L 332.8,66.2 L 326.5,66.2 L 324.3,66.2 L 326.5,66.2 L 332.8,66.2 L 342.2,66.2 L 353.3,66.2" stroke="#6a8aa8" stroke-width="0.5" fill="none" opacity="0.55"/>
<path d="M 353.3,73.1 L 364.3,73.1 L 373.7,73.1 L 379.9,73.1 L 382.1,73.1 L 379.9,73.1 L 373.7,73.1 L 364.3,73.1 L 353.3,73.1 L 342.3,73.1 L 333.0,73.1 L 326.8,73.1 L 324.6,73.1 L 326.8,73.1 L 333.0,73.1 L 342.3,73.1 L 353.3,73.1" stroke="#6a8aa8" stroke-width="0.5" fill="none" opacity="0.55"/>
<path d="M 353.3,82.5 L 364.7,82.5 L 374.3,82.5 L 380.7,82.5 L 383.0,82.5 L 380.7,82.5 L 374.3,82.5 L 364.7,82.5 L 353.3,82.5 L 342.0,82.5 L 332.4,82.5 L 325.9,82.5 L 323.7,82.5 L 325.9,82.5 L 332.4,82.5 L 342.0,82.5 L 353.3,82.5" stroke="#6a8aa8" stroke-width="0.5" fill="none" opacity="0.55"/>
<path d="M 353.3,97.2 L 364.4,97.2 L 373.9,97.2 L 380.2,97.2 L 382.4,97.2 L 380.2,97.2 L 373.9,97.2 L 364.4,97.2 L 353.3,97.2 L 342.2,97.2 L 332.8,97.2 L 326.5,97.2 L 324.3,97.2 L 326.5,97.2 L 332.8,97.2 L 342.2,97.2 L 353.3,97.2" stroke="#6a8aa8" stroke-width="0.5" fill="none" opacity="0.55"/>
<path d="M 353.3,104.1 L 364.2,104.1 L 373.5,104.1 L 379.6,104.1 L 381.8,104.1 L 379.6,104.1 L 373.5,104.1 L 364.2,104.1 L 353.3,104.1 L 342.4,104.1 L 333.2,104.1 L 327.0,104.1 L 324.9,104.1 L 327.0,104.1 L 333.2,104.1 L 342.4,104.1 L 353.3,104.1" stroke="#6a8aa8" stroke-width="0.5" fill="none" opacity="0.55"/>
<path d="M 353.3,114.3 L 362.2,114.3 L 369.7,114.3 L 374.7,114.3 L 376.5,114.3 L 374.7,114.3 L 369.7,114.3 L 362.2,114.3 L 353.3,114.3 L 344.5,114.3 L 337.0,114.3 L 332.0,114.3 L 330.2,114.3 L 332.0,114.3 L 337.0,114.3 L 344.5,114.3 L 353.3,114.3" stroke="#6a8aa8" stroke-width="0.5" fill="none" opacity="0.55"/>
<path d="M 353.3,117.2 L 363.3,117.2 L 371.8,117.2 L 377.4,117.2 L 379.4,117.2 L 377.4,117.2 L 371.8,117.2 L 363.3,117.2 L 353.3,117.2 L 343.4,117.2 L 334.9,117.2 L 329.2,117.2 L 327.3,117.2 L 329.2,117.2 L 334.9,117.2 L 343.4,117.2 L 353.3,117.2" stroke="#6a8aa8" stroke-width="0.5" fill="none" opacity="0.55"/>
<path d="M 353.3,118.9 L 362.6,118.9 L 370.5,118.9 L 375.8,118.9 L 377.6,118.9 L 375.8,118.9 L 370.5,118.9 L 362.6,118.9 L 353.3,118.9 L 344.0,118.9 L 336.1,118.9 L 330.9,118.9 L 329.0,118.9 L 330.9,118.9 L 336.1,118.9 L 344.0,118.9 L 353.3,118.9" stroke="#6a8aa8" stroke-width="0.5" fill="none" opacity="0.55"/>
<path d="M 353.3,121.7 L 362.2,121.7 L 369.7,121.7 L 374.7,121.7 L 376.5,121.7 L 374.7,121.7 L 369.7,121.7 L 362.2,121.7 L 353.3,121.7 L 344.5,121.7 L 337.0,121.7 L 332.0,121.7 L 330.2,121.7 L 332.0,121.7 L 337.0,121.7 L 344.5,121.7 L 353.3,121.7" stroke="#6a8aa8" stroke-width="0.5" fill="none" opacity="0.55"/>
<path d="M 353.3,132.6 L 360.8,132.6 L 367.2,132.6 L 371.4,132.6 L 372.9,132.6 L 371.4,132.6 L 367.2,132.6 L 360.8,132.6 L 353.3,132.6 L 345.8,132.6 L 339.5,132.6 L 335.3,132.6 L 333.8,132.6 L 335.3,132.6 L 339.5,132.6 L 345.8,132.6 L 353.3,132.6" stroke="#6a8aa8" stroke-width="0.5" fill="none" opacity="0.55"/>
<path d="M 353.3,136.0 L 359.0,136.0 L 363.8,136.0 L 367.0,136.0 L 368.2,136.0 L 367.0,136.0 L 363.8,136.0 L 359.0,136.0 L 353.3,136.0 L 347.7,136.0 L 342.9,136.0 L 339.6,136.0 L 338.5,136.0 L 339.6,136.0 L 342.9,136.0 L 347.7,136.0 L 353.3,136.0" stroke="#6a8aa8" stroke-width="0.5" fill="none" opacity="0.55"/>
<path d="M 353.3,139.9 L 360.1,139.9 L 365.9,139.9 L 369.8,139.9 L 371.1,139.9 L 369.8,139.9 L 365.9,139.9 L 360.1,139.9 L 353.3,139.9 L 346.5,139.9 L 340.8,139.9 L 336.9,139.9 L 335.5,139.9 L 336.9,139.9 L 340.8,139.9 L 346.5,139.9 L 353.3,139.9" stroke="#6a8aa8" stroke-width="0.5" fill="none" opacity="0.55"/>
<path d="M 353.3,149.6 L 360.5,149.6 L 366.5,149.6 L 370.6,149.6 L 372.0,149.6 L 370.6,149.6 L 366.5,149.6 L 360.5,149.6 L 353.3,149.6 L 346.2,149.6 L 340.1,149.6 L 336.1,149.6 L 334.7,149.6 L 336.1,149.6 L 340.1,149.6 L 346.2,149.6 L 353.3,149.6" stroke="#6a8aa8" stroke-width="0.5" fill="none" opacity="0.55"/>
<path d="M 353.3,159.3 L 361.2,159.3 L 367.8,159.3 L 372.2,159.3 L 373.8,159.3 L 372.2,159.3 L 367.8,159.3 L 361.2,159.3 L 353.3,159.3 L 345.5,159.3 L 338.9,159.3 L 334.4,159.3 L 332.9,159.3 L 334.4,159.3 L 338.9,159.3 L 345.5,159.3 L 353.3,159.3" stroke="#6a8aa8" stroke-width="0.5" fill="none" opacity="0.55"/>
<path d="M 353.3,162.0 L 363.8,162.0 L 372.7,162.0 L 378.6,162.0 L 380.7,162.0 L 378.6,162.0 L 372.7,162.0 L 363.8,162.0 L 353.3,162.0 L 342.9,162.0 L 334.0,162.0 L 328.1,162.0 L 326.0,162.0 L 328.1,162.0 L 334.0,162.0 L 342.9,162.0 L 353.3,162.0" stroke="#6a8aa8" stroke-width="0.5" fill="none" opacity="0.55"/>
<path d="M 353.3,165.5 L 370.1,165.5 L 384.3,165.5 L 393.8,165.5 L 397.1,165.5 L 393.8,165.5 L 384.3,165.5 L 370.1,165.5 L 353.3,165.5 L 336.6,165.5 L 322.4,165.5 L 312.9,165.5 L 309.6,165.5 L 312.9,165.5 L 322.4,165.5 L 336.6,165.5 L 353.3,165.5" stroke="#6a8aa8" stroke-width="0.5" fill="none" opacity="0.55"/>
<path d="M 353.3,168.9 L 374.7,168.9 L 392.9,168.9 L 405.0,168.9 L 409.2,168.9 L 405.0,168.9 L 392.9,168.9 L 374.7,168.9 L 353.3,168.9 L 331.9,168.9 L 313.8,168.9 L 301.7,168.9 L 297.4,168.9 L 301.7,168.9 L 313.8,168.9 L 331.9,168.9 L 353.3,168.9" stroke="#6a8aa8" stroke-width="0.5" fill="none" opacity="0.55"/>
<path d="M 353.3,170.9 L 376.6,170.9 L 396.3,170.9 L 409.5,170.9 L 414.1,170.9 L 409.5,170.9 L 396.3,170.9 L 376.6,170.9 L 353.3,170.9 L 330.1,170.9 L 310.4,170.9 L 297.2,170.9 L 292.6,170.9 L 297.2,170.9 L 310.4,170.9 L 330.1,170.9 L 353.3,170.9" stroke="#6a8aa8" stroke-width="0.5" fill="none" opacity="0.55"/>
<path d="M 353.3,196.3 L 374.7,196.3 L 392.9,196.3 L 405.0,196.3 L 409.2,196.3 L 405.0,196.3 L 392.9,196.3 L 374.7,196.3 L 353.3,196.3 L 331.9,196.3 L 313.8,196.3 L 301.7,196.3 L 297.4,196.3 L 301.7,196.3 L 313.8,196.3 L 331.9,196.3 L 353.3,196.3" stroke="#6a8aa8" stroke-width="0.5" fill="none" opacity="0.55"/>
<path d="M 353.3,213.5 L 372.4,213.5 L 388.6,213.5 L 399.4,213.5 L 403.2,213.5 L 399.4,213.5 L 388.6,213.5 L 372.4,213.5 L 353.3,213.5 L 334.3,213.5 L 318.1,213.5 L 307.3,213.5 L 303.5,213.5 L 307.3,213.5 L 318.1,213.5 L 334.3,213.5 L 353.3,213.5" stroke="#6a8aa8" stroke-width="0.5" fill="none" opacity="0.55"/>
<path d="M 353.3,234.2 L 370.5,234.2 L 385.1,234.2 L 394.9,234.2 L 398.3,234.2 L 394.9,234.2 L 385.1,234.2 L 370.5,234.2 L 353.3,234.2 L 336.1,234.2 L 321.5,234.2 L 311.8,234.2 L 308.4,234.2 L 311.8,234.2 L 321.5,234.2 L 336.1,234.2 L 353.3,234.2" stroke="#6a8aa8" stroke-width="0.5" fill="none" opacity="0.55"/>
<path d="M 353.3,251.4 L 370.8,251.4 L 385.6,251.4 L 395.5,251.4 L 399.0,251.4 L 395.5,251.4 L 385.6,251.4 L 370.8,251.4 L 353.3,251.4 L 335.9,251.4 L 321.1,251.4 L 311.2,251.4 L 307.7,251.4 L 311.2,251.4 L 321.1,251.4 L 335.9,251.4 L 353.3,251.4" stroke="#6a8aa8" stroke-width="0.5" fill="none" opacity="0.55"/>
<path d="M 353.3,291.1 L 369.2,291.1 L 382.7,291.1 L 391.7,291.1 L 394.8,291.1 L 391.7,291.1 L 382.7,291.1 L 369.2,291.1 L 353.3,291.1 L 337.5,291.1 L 324.0,291.1 L 315.0,291.1 L 311.8,291.1 L 315.0,291.1 L 324.0,291.1 L 337.5,291.1 L 353.3,291.1" stroke="#6a8aa8" stroke-width="0.5" fill="none" opacity="0.55"/>
<path d="M 353.3,308.3 L 374.6,308.3 L 392.6,308.3 L 404.6,308.3 L 408.8,308.3 L 404.6,308.3 L 392.6,308.3 L 374.6,308.3 L 353.3,308.3 L 332.1,308.3 L 314.1,308.3 L 302.1,308.3 L 297.8,308.3 L 302.1,308.3 L 314.1,308.3 L 332.1,308.3 L 353.3,308.3" stroke="#6a8aa8" stroke-width="0.5" fill="none" opacity="0.55"/>
<path d="M 353.3,347.9 L 375.5,347.9 L 394.2,347.9 L 406.7,347.9 L 411.1,347.9 L 406.7,347.9 L 394.2,347.9 L 375.5,347.9 L 353.3,347.9 L 331.2,347.9 L 312.5,347.9 L 299.9,347.9 L 295.5,347.9 L 299.9,347.9 L 312.5,347.9 L 331.2,347.9 L 353.3,347.9" stroke="#6a8aa8" stroke-width="0.5" fill="none" opacity="0.55"/>
<path d="M 353.3,368.6 L 372.1,368.6 L 388.1,368.6 L 398.7,368.6 L 402.5,368.6 L 398.7,368.6 L 388.1,368.6 L 372.1,368.6 L 353.3,368.6 L 334.5,368.6 L 318.6,368.6 L 307.9,368.6 L 304.2,368.6 L 307.9,368.6 L 318.6,368.6 L 334.5,368.6 L 353.3,368.6" stroke="#6a8aa8" stroke-width="0.5" fill="none" opacity="0.55"/>
<path d="M 353.3,382.4 L 364.3,382.4 L 373.6,382.4 L 379.8,382.4 L 382.0,382.4 L 379.8,382.4 L 373.6,382.4 L 364.3,382.4 L 353.3,382.4 L 342.4,382.4 L 333.1,382.4 L 326.9,382.4 L 324.7,382.4 L 326.9,382.4 L 333.1,382.4 L 342.4,382.4 L 353.3,382.4" stroke="#6a8aa8" stroke-width="0.5" fill="none" opacity="0.55"/>
<path d="M 353.3,446.2 L 363.0,446.2 L 371.1,446.2 L 376.6,446.2 L 378.5,446.2 L 376.6,446.2 L 371.1,446.2 L 363.0,446.2 L 353.3,446.2 L 343.7,446.2 L 335.5,446.2 L 330.1,446.2 L 328.1,446.2 L 330.1,446.2 L 335.5,446.2 L 343.7,446.2 L 353.3,446.2" stroke="#6a8aa8" stroke-width="0.5" fill="none" opacity="0.55"/>
<path d="M 353.3,469.4 L 360.9,469.4 L 367.2,469.4 L 371.5,469.4 L 373.0,469.4 L 371.5,469.4 L 367.2,469.4 L 360.9,469.4 L 353.3,469.4 L 345.8,469.4 L 339.4,469.4 L 335.2,469.4 L 333.7,469.4 L 335.2,469.4 L 339.4,469.4 L 345.8,469.4 L 353.3,469.4" stroke="#6a8aa8" stroke-width="0.5" fill="none" opacity="0.55"/>
<path d="M 353.3,523.7 L 358.6,523.7 L 363.1,523.7 L 366.1,523.7 L 367.2,523.7 L 366.1,523.7 L 363.1,523.7 L 358.6,523.7 L 353.3,523.7 L 348.0,523.7 L 343.5,523.7 L 340.5,523.7 L 339.5,523.7 L 340.5,523.7 L 343.5,523.7 L 348.0,523.7 L 353.3,523.7" stroke="#6a8aa8" stroke-width="0.5" fill="none" opacity="0.55"/>
<path d="M 353.3,550.8 L 359.3,550.8 L 364.4,550.8 L 367.8,550.8 L 369.0,550.8 L 367.8,550.8 L 364.4,550.8 L 359.3,550.8 L 353.3,550.8 L 347.4,550.8 L 342.3,550.8 L 338.9,550.8 L 337.7,550.8 L 338.9,550.8 L 342.3,550.8 L 347.4,550.8 L 353.3,550.8" stroke="#6a8aa8" stroke-width="0.5" fill="none" opacity="0.55"/>
<path d="M 353.3,601.2 L 358.2,601.2 L 362.2,601.2 L 365.0,601.2 L 365.9,601.2 L 365.0,601.2 L 362.2,601.2 L 358.2,601.2 L 353.3,601.2 L 348.5,601.2 L 344.4,601.2 L 341.7,601.2 L 340.7,601.2 L 341.7,601.2 L 344.4,601.2 L 348.5,601.2 L 353.3,601.2" stroke="#6a8aa8" stroke-width="0.5" fill="none" opacity="0.55"/>
<path d="M 353.3,655.5 L 356.7,655.5 L 359.6,655.5 L 361.5,655.5 L 362.2,655.5 L 361.5,655.5 L 359.6,655.5 L 356.7,655.5 L 353.3,655.5 L 350.0,655.5 L 347.1,655.5 L 345.2,655.5 L 344.5,655.5 L 345.2,655.5 L 347.1,655.5 L 350.0,655.5 L 353.3,655.5" stroke="#6a8aa8" stroke-width="0.5" fill="none" opacity="0.55"/>
<path d="M 353.3,668.4 L 357.7,668.4 L 361.4,668.4 L 363.8,668.4 L 364.7,668.4 L 363.8,668.4 L 361.4,668.4 L 357.7,668.4 L 353.3,668.4 L 349.0,668.4 L 345.3,668.4 L 342.9,668.4 L 342.0,668.4 L 342.9,668.4 L 345.3,668.4 L 349.0,668.4 L 353.3,668.4" stroke="#6a8aa8" stroke-width="0.5" fill="none" opacity="0.55"/>
<path d="M 353.3,678.8 L 357.0,678.8 L 360.1,678.8 L 362.2,678.8 L 362.9,678.8 L 362.2,678.8 L 360.1,678.8 L 357.0,678.8 L 353.3,678.8 L 349.7,678.8 L 346.6,678.8 L 344.5,678.8 L 343.8,678.8 L 344.5,678.8 L 346.6,678.8 L 349.7,678.8 L 353.3,678.8" stroke="#6a8aa8" stroke-width="0.5" fill="none" opacity="0.55"/>
<path d="M 353.3,58.5 L 353.3,65.4 L 353.3,66.2 L 353.3,73.1 L 353.3,82.5 L 353.3,97.2 L 353.3,104.1 L 353.3,114.3 L 353.3,117.2 L 353.3,118.9 L 353.3,121.7 L 353.3,132.6 L 353.3,136.0 L 353.3,139.9 L 353.3,149.6 L 353.3,159.3 L 353.3,162.0 L 353.3,165.5 L 353.3,168.9 L 353.3,170.9 L 353.3,196.3 L 353.3,213.5 L 353.3,234.2 L 353.3,251.4 L 353.3,291.1 L 353.3,308.3 L 353.3,347.9 L 353.3,368.6 L 353.3,382.4 L 353.3,446.2 L 353.3,469.4 L 353.3,523.7 L 353.3,550.8 L 353.3,601.2 L 353.3,655.5 L 353.3,668.4 L 353.3,678.8" stroke="#6a8aa8" stroke-width="0.5" fill="none" opacity="0.65"/>
<path d="M 359.6,58.5 L 366.3,65.4 L 373.9,66.2 L 373.7,73.1 L 374.3,82.5 L 373.9,97.2 L 373.5,104.1 L 369.7,114.3 L 371.8,117.2 L 370.5,118.9 L 369.7,121.7 L 367.2,132.6 L 363.8,136.0 L 365.9,139.9 L 366.5,149.6 L 367.8,159.3 L 372.7,162.0 L 384.3,165.5 L 392.9,168.9 L 396.3,170.9 L 392.9,196.3 L 388.6,213.5 L 385.1,234.2 L 385.6,251.4 L 382.7,291.1 L 392.6,308.3 L 394.2,347.9 L 388.1,368.6 L 373.6,382.4 L 371.1,446.2 L 367.2,469.4 L 363.1,523.7 L 364.4,550.8 L 362.2,601.2 L 359.6,655.5 L 361.4,668.4 L 360.1,678.8" stroke="#6a8aa8" stroke-width="0.5" fill="none" opacity="0.65"/>
<path d="M 362.2,58.5 L 371.7,65.4 L 382.4,66.2 L 382.1,73.1 L 383.0,82.5 L 382.4,97.2 L 381.8,104.1 L 376.5,114.3 L 379.4,117.2 L 377.6,118.9 L 376.5,121.7 L 372.9,132.6 L 368.2,136.0 L 371.1,139.9 L 372.0,149.6 L 373.8,159.3 L 380.7,162.0 L 397.1,165.5 L 409.2,168.9 L 414.1,170.9 L 409.2,196.3 L 403.2,213.5 L 398.3,234.2 L 399.0,251.4 L 394.8,291.1 L 408.8,308.3 L 411.1,347.9 L 402.5,368.6 L 382.0,382.4 L 378.5,446.2 L 373.0,469.4 L 367.2,523.7 L 369.0,550.8 L 365.9,601.2 L 362.2,655.5 L 364.7,668.4 L 362.9,678.8" stroke="#6a8aa8" stroke-width="0.5" fill="none" opacity="0.65"/>
<path d="M 359.6,58.5 L 366.3,65.4 L 373.9,66.2 L 373.7,73.1 L 374.3,82.5 L 373.9,97.2 L 373.5,104.1 L 369.7,114.3 L 371.8,117.2 L 370.5,118.9 L 369.7,121.7 L 367.2,132.6 L 363.8,136.0 L 365.9,139.9 L 366.5,149.6 L 367.8,159.3 L 372.7,162.0 L 384.3,165.5 L 392.9,168.9 L 396.3,170.9 L 392.9,196.3 L 388.6,213.5 L 385.1,234.2 L 385.6,251.4 L 382.7,291.1 L 392.6,308.3 L 394.2,347.9 L 388.1,368.6 L 373.6,382.4 L 371.1,446.2 L 367.2,469.4 L 363.1,523.7 L 364.4,550.8 L 362.2,601.2 L 359.6,655.5 L 361.4,668.4 L 360.1,678.8" stroke="#6a8aa8" stroke-width="0.5" fill="none" opacity="0.65"/>
<path d="M 353.3,58.5 L 353.3,65.4 L 353.3,66.2 L 353.3,73.1 L 353.3,82.5 L 353.3,97.2 L 353.3,104.1 L 353.3,114.3 L 353.3,117.2 L 353.3,118.9 L 353.3,121.7 L 353.3,132.6 L 353.3,136.0 L 353.3,139.9 L 353.3,149.6 L 353.3,159.3 L 353.3,162.0 L 353.3,165.5 L 353.3,168.9 L 353.3,170.9 L 353.3,196.3 L 353.3,213.5 L 353.3,234.2 L 353.3,251.4 L 353.3,291.1 L 353.3,308.3 L 353.3,347.9 L 353.3,368.6 L 353.3,382.4 L 353.3,446.2 L 353.3,469.4 L 353.3,523.7 L 353.3,550.8 L 353.3,601.2 L 353.3,655.5 L 353.3,668.4 L 353.3,678.8" stroke="#6a8aa8" stroke-width="0.5" fill="none" opacity="0.65"/>
<path d="M 347.0,58.5 L 340.3,65.4 L 332.8,66.2 L 333.0,73.1 L 332.4,82.5 L 332.8,97.2 L 333.2,104.1 L 337.0,114.3 L 334.9,117.2 L 336.1,118.9 L 337.0,121.7 L 339.5,132.6 L 342.9,136.0 L 340.8,139.9 L 340.1,149.6 L 338.9,159.3 L 334.0,162.0 L 322.4,165.5 L 313.8,168.9 L 310.4,170.9 L 313.8,196.3 L 318.1,213.5 L 321.5,234.2 L 321.1,251.4 L 324.0,291.1 L 314.1,308.3 L 312.5,347.9 L 318.6,368.6 L 333.1,382.4 L 335.5,446.2 L 339.4,469.4 L 343.5,523.7 L 342.3,550.8 L 344.4,601.2 L 347.1,655.5 L 345.3,668.4 L 346.6,678.8" stroke="#6a8aa8" stroke-width="0.5" fill="none" opacity="0.65"/>
<path d="M 344.4,58.5 L 335.0,65.4 L 324.3,66.2 L 324.6,73.1 L 323.7,82.5 L 324.3,97.2 L 324.9,104.1 L 330.2,114.3 L 327.3,117.2 L 329.0,118.9 L 330.2,121.7 L 333.8,132.6 L 338.5,136.0 L 335.5,139.9 L 334.7,149.6 L 332.9,159.3 L 326.0,162.0 L 309.6,165.5 L 297.4,168.9 L 292.6,170.9 L 297.4,196.3 L 303.5,213.5 L 308.4,234.2 L 307.7,251.4 L 311.8,291.1 L 297.8,308.3 L 295.5,347.9 L 304.2,368.6 L 324.7,382.4 L 328.1,446.2 L 333.7,469.4 L 339.5,523.7 L 337.7,550.8 L 340.7,601.2 L 344.5,655.5 L 342.0,668.4 L 343.8,678.8" stroke="#6a8aa8" stroke-width="0.5" fill="none" opacity="0.65"/>
<path d="M 347.0,58.5 L 340.3,65.4 L 332.8,66.2 L 333.0,73.1 L 332.4,82.5 L 332.8,97.2 L 333.2,104.1 L 337.0,114.3 L 334.9,117.2 L 336.1,118.9 L 337.0,121.7 L 339.5,132.6 L 342.9,136.0 L 340.8,139.9 L 340.1,149.6 L 338.9,159.3 L 334.0,162.0 L 322.4,165.5 L 313.8,168.9 L 310.4,170.9 L 313.8,196.3 L 318.1,213.5 L 321.5,234.2 L 321.1,251.4 L 324.0,291.1 L 314.1,308.3 L 312.5,347.9 L 318.6,368.6 L 333.1,382.4 L 335.5,446.2 L 339.4,469.4 L 343.5,523.7 L 342.3,550.8 L 344.4,601.2 L 347.1,655.5 L 345.3,668.4 L 346.6,678.8" stroke="#6a8aa8" stroke-width="0.5" fill="none" opacity="0.65"/>
<path d="M 405.0,174.3 L 411.7,174.3 L 414.5,174.3 L 411.7,174.3 L 405.0,174.3 L 398.3,174.3 L 395.5,174.3 L 398.3,174.3 L 405.0,174.3" stroke="#a0b8c8" stroke-width="0.5" fill="none" opacity="0.6"/>
<path d="M 407.5,220.3 L 414.0,220.3 L 416.7,220.3 L 414.0,220.3 L 407.5,220.3 L 400.9,220.3 L 398.3,220.3 L 400.9,220.3 L 407.5,220.3" stroke="#a0b8c8" stroke-width="0.5" fill="none" opacity="0.6"/>
<path d="M 409.9,266.2 L 416.2,266.2 L 418.8,266.2 L 416.2,266.2 L 409.9,266.2 L 403.6,266.2 L 401.0,266.2 L 403.6,266.2 L 409.9,266.2" stroke="#a0b8c8" stroke-width="0.5" fill="none" opacity="0.6"/>
<path d="M 412.4,312.2 L 418.5,312.2 L 421.0,312.2 L 418.5,312.2 L 412.4,312.2 L 406.3,312.2 L 403.8,312.2 L 406.3,312.2 L 412.4,312.2" stroke="#a0b8c8" stroke-width="0.5" fill="none" opacity="0.6"/>
<path d="M 414.9,358.1 L 420.8,358.1 L 423.2,358.1 L 420.8,358.1 L 414.9,358.1 L 409.0,358.1 L 406.5,358.1 L 409.0,358.1 L 414.9,358.1" stroke="#a0b8c8" stroke-width="0.5" fill="none" opacity="0.6"/>
<path d="M 417.3,404.1 L 423.0,404.1 L 425.4,404.1 L 423.0,404.1 L 417.3,404.1 L 411.6,404.1 L 409.3,404.1 L 411.6,404.1 L 417.3,404.1" stroke="#a0b8c8" stroke-width="0.5" fill="none" opacity="0.6"/>
<path d="M 419.8,450.0 L 425.3,450.0 L 427.6,450.0 L 425.3,450.0 L 419.8,450.0 L 414.3,450.0 L 412.0,450.0 L 414.3,450.0 L 419.8,450.0" stroke="#a0b8c8" stroke-width="0.5" fill="none" opacity="0.6"/>
<path d="M 421.5,470.7 L 427.3,470.7 L 429.7,470.7 L 427.3,470.7 L 421.5,470.7 L 415.8,470.7 L 413.4,470.7 L 415.8,470.7 L 421.5,470.7" stroke="#a0b8c8" stroke-width="0.5" fill="none" opacity="0.6"/>
<path d="M 405.0,174.3 L 407.5,220.3 L 409.9,266.2 L 412.4,312.2 L 414.9,358.1 L 417.3,404.1 L 419.8,450.0 L 421.5,470.7" stroke="#a0b8c8" stroke-width="0.5" fill="none" opacity="0.65"/>
<path d="M 414.5,174.3 L 416.7,220.3 L 418.8,266.2 L 421.0,312.2 L 423.2,358.1 L 425.4,404.1 L 427.6,450.0 L 429.7,470.7" stroke="#a0b8c8" stroke-width="0.5" fill="none" opacity="0.65"/>
<path d="M 405.0,174.3 L 407.5,220.3 L 409.9,266.2 L 412.4,312.2 L 414.9,358.1 L 417.3,404.1 L 419.8,450.0 L 421.5,470.7" stroke="#a0b8c8" stroke-width="0.5" fill="none" opacity="0.65"/>
<path d="M 395.5,174.3 L 398.3,220.3 L 401.0,266.2 L 403.8,312.2 L 406.5,358.1 L 409.3,404.1 L 412.0,450.0 L 413.4,470.7" stroke="#a0b8c8" stroke-width="0.5" fill="none" opacity="0.65"/>
<path d="M 301.7,174.3 L 308.4,174.3 L 311.2,174.3 L 308.4,174.3 L 301.7,174.3 L 295.0,174.3 L 292.2,174.3 L 295.0,174.3 L 301.7,174.3" stroke="#a0b8c8" stroke-width="0.5" fill="none" opacity="0.6"/>
<path d="M 299.2,220.3 L 305.7,220.3 L 308.4,220.3 L 305.7,220.3 L 299.2,220.3 L 292.7,220.3 L 290.0,220.3 L 292.7,220.3 L 299.2,220.3" stroke="#a0b8c8" stroke-width="0.5" fill="none" opacity="0.6"/>
<path d="M 296.7,266.2 L 303.0,266.2 L 305.7,266.2 L 303.0,266.2 L 296.7,266.2 L 290.4,266.2 L 287.8,266.2 L 290.4,266.2 L 296.7,266.2" stroke="#a0b8c8" stroke-width="0.5" fill="none" opacity="0.6"/>
<path d="M 294.3,312.2 L 300.4,312.2 L 302.9,312.2 L 300.4,312.2 L 294.3,312.2 L 288.2,312.2 L 285.6,312.2 L 288.2,312.2 L 294.3,312.2" stroke="#a0b8c8" stroke-width="0.5" fill="none" opacity="0.6"/>
<path d="M 291.8,358.1 L 297.7,358.1 L 300.2,358.1 L 297.7,358.1 L 291.8,358.1 L 285.9,358.1 L 283.5,358.1 L 285.9,358.1 L 291.8,358.1" stroke="#a0b8c8" stroke-width="0.5" fill="none" opacity="0.6"/>
<path d="M 289.3,404.1 L 295.0,404.1 L 297.4,404.1 L 295.0,404.1 L 289.3,404.1 L 283.6,404.1 L 281.3,404.1 L 283.6,404.1 L 289.3,404.1" stroke="#a0b8c8" stroke-width="0.5" fill="none" opacity="0.6"/>
<path d="M 286.9,450.0 L 292.4,450.0 L 294.6,450.0 L 292.4,450.0 L 286.9,450.0 L 281.4,450.0 L 279.1,450.0 L 281.4,450.0 L 286.9,450.0" stroke="#a0b8c8" stroke-width="0.5" fill="none" opacity="0.6"/>
<path d="M 285.1,470.7 L 290.9,470.7 L 293.3,470.7 L 290.9,470.7 L 285.1,470.7 L 279.4,470.7 L 277.0,470.7 L 279.4,470.7 L 285.1,470.7" stroke="#a0b8c8" stroke-width="0.5" fill="none" opacity="0.6"/>
<path d="M 301.7,174.3 L 299.2,220.3 L 296.7,266.2 L 294.3,312.2 L 291.8,358.1 L 289.3,404.1 L 286.9,450.0 L 285.1,470.7" stroke="#a0b8c8" stroke-width="0.5" fill="none" opacity="0.65"/>
<path d="M 311.2,174.3 L 308.4,220.3 L 305.7,266.2 L 302.9,312.2 L 300.2,358.1 L 297.4,404.1 L 294.6,450.0 L 293.3,470.7" stroke="#a0b8c8" stroke-width="0.5" fill="none" opacity="0.65"/>
<path d="M 301.7,174.3 L 299.2,220.3 L 296.7,266.2 L 294.3,312.2 L 291.8,358.1 L 289.3,404.1 L 286.9,450.0 L 285.1,470.7" stroke="#a0b8c8" stroke-width="0.5" fill="none" opacity="0.65"/>
<path d="M 292.2,174.3 L 290.0,220.3 L 287.8,266.2 L 285.6,312.2 L 283.5,358.1 L 281.3,404.1 L 279.1,450.0 L 277.0,470.7" stroke="#a0b8c8" stroke-width="0.5" fill="none" opacity="0.65"/>
<path d="M 344.4,58.0 L 324.3,66.0 L 324.6,74.0 L 323.7,82.0 L 324.3,98.0 L 324.9,106.0 L 330.2,114.0 L 327.3,118.0 L 330.2,122.0 L 333.8,134.0 L 335.5,138.0 L 334.7,150.0 L 332.9,158.0 L 326.0,162.0 L 309.6,166.0 L 292.6,170.0 L 292.2,174.0 L 297.4,198.0 L 303.5,214.0 L 290.0,222.0 L 308.4,234.0 L 307.7,250.0 L 287.8,266.0 L 311.8,290.0 L 297.8,310.0 L 285.6,314.0 L 295.5,346.0 L 283.5,358.0 L 304.2,370.0 L 324.7,382.0 L 281.3,406.0 L 328.1,446.0 L 279.1,450.0 L 277.0,470.0 L 339.5,522.0 L 337.7,550.0 L 340.7,602.0 L 344.5,654.0 L 342.0,670.0 L 343.8,678.0 L 362.9,678.0 L 364.7,670.0 L 362.2,654.0 L 365.9,602.0 L 369.0,550.0 L 367.2,522.0 L 429.7,470.0 L 427.6,450.0 L 378.5,446.0 L 425.4,406.0 L 382.0,382.0 L 402.5,370.0 L 423.2,358.0 L 411.1,346.0 L 421.0,314.0 L 408.8,310.0 L 394.8,290.0 L 418.8,266.0 L 399.0,250.0 L 398.3,234.0 L 416.7,222.0 L 403.2,214.0 L 409.2,198.0 L 414.5,174.0 L 414.1,170.0 L 397.1,166.0 L 380.7,162.0 L 373.8,158.0 L 372.0,150.0 L 371.1,138.0 L 372.9,134.0 L 376.5,122.0 L 379.4,118.0 L 376.5,114.0 L 381.8,106.0 L 382.4,98.0 L 383.0,82.0 L 382.1,74.0 L 382.4,66.0 L 362.2,58.0 Z" fill="#c8a880" fill-opacity="0.13" stroke="#e0c898" stroke-width="1.2" stroke-opacity="0.55"/>
<line x1="18" y1="58.5" x2="24" y2="58.5" stroke="#dd8855" stroke-width="1.2"/>
<text x="14" y="61.5" fill="#dd8855" text-anchor="end">crown</text>
<line x1="18" y1="82.5" x2="24" y2="82.5" stroke="#dd8855" stroke-width="1.2"/>
<text x="14" y="85.5" fill="#dd8855" text-anchor="end">brow</text>
<line x1="18" y1="97.2" x2="24" y2="97.2" stroke="#dd8855" stroke-width="1.2"/>
<text x="14" y="100.2" fill="#dd8855" text-anchor="end">eye</text>
<line x1="18" y1="114.3" x2="24" y2="114.3" stroke="#dd8855" stroke-width="1.2"/>
<text x="14" y="117.3" fill="#dd8855" text-anchor="end">nose</text>
<line x1="18" y1="118.9" x2="24" y2="118.9" stroke="#dd8855" stroke-width="1.2"/>
<text x="14" y="121.9" fill="#dd8855" text-anchor="end">mouth</text>
<line x1="18" y1="136.0" x2="24" y2="136.0" stroke="#dd8855" stroke-width="1.2"/>
<text x="14" y="139.0" fill="#dd8855" text-anchor="end">chin</text>
<line x1="18" y1="170.9" x2="24" y2="170.9" stroke="#dd8855" stroke-width="1.2"/>
<text x="14" y="173.9" fill="#dd8855" text-anchor="end">clav</text>
<line x1="18" y1="213.5" x2="24" y2="213.5" stroke="#dd8855" stroke-width="1.2"/>
<text x="14" y="216.5" fill="#dd8855" text-anchor="end">nipple</text>
<line x1="18" y1="291.1" x2="24" y2="291.1" stroke="#dd8855" stroke-width="1.2"/>
<text x="14" y="294.1" fill="#dd8855" text-anchor="end">navel</text>
<line x1="18" y1="368.6" x2="24" y2="368.6" stroke="#dd8855" stroke-width="1.2"/>
<text x="14" y="371.6" fill="#dd8855" text-anchor="end">crotch</text>
<line x1="18" y1="523.7" x2="24" y2="523.7" stroke="#dd8855" stroke-width="1.2"/>
<text x="14" y="526.7" fill="#dd8855" text-anchor="end">knee</text>
<line x1="18" y1="655.5" x2="24" y2="655.5" stroke="#dd8855" stroke-width="1.2"/>
<text x="14" y="658.5" fill="#dd8855" text-anchor="end">ankle</text>
<text x="6" y="360.0" fill="#666" transform="rotate(-90 6 360.0)">Y (height, metres)</text>
</svg>