<?xml version="1.0" encoding="UTF-8"?>
<svg xmlns="http://www.w3.org/2000/svg" width="360" height="720" viewBox="0 0 360 720" style="background:#1a1a20;font-family:monospace;font-size:9px;">
<text x="24" y="18" fill="#aaa">male — FRONT view</text>
<line x1="24" y1="58.5" x2="336" y2="58.5" stroke="#3a3a45" stroke-width="0.5" stroke-dasharray="2 3"/>
<text x="338" y="57.5" fill="#5a5a70">0H</text>
<line x1="24" y1="136.0" x2="336" y2="136.0" stroke="#3a3a45" stroke-width="0.5" stroke-dasharray="2 3"/>
<text x="338" y="135.0" fill="#5a5a70">1H</text>
<line x1="24" y1="213.5" x2="336" y2="213.5" stroke="#3a3a45" stroke-width="0.5" stroke-dasharray="2 3"/>
<text x="338" y="212.5" fill="#5a5a70">2H</text>
<line x1="24" y1="291.1" x2="336" y2="291.1" stroke="#3a3a45" stroke-width="0.5" stroke-dasharray="2 3"/>
<text x="338" y="290.1" fill="#5a5a70">3H</text>
<line x1="24" y1="368.6" x2="336" y2="368.6" stroke="#3a3a45" stroke-width="0.5" stroke-dasharray="2 3"/>
<text x="338" y="367.6" fill="#5a5a70">4H</text>
<line x1="24" y1="446.2" x2="336" y2="446.2" stroke="#3a3a45" stroke-width="0.5" stroke-dasharray="2 3"/>
<text x="338" y="445.2" fill="#5a5a70">5H</text>
<line x1="24" y1="523.7" x2="336" y2="523.7" stroke="#3a3a45" stroke-width="0.5" stroke-dasharray="2 3"/>
<text x="338" y="522.7" fill="#5a5a70">6H</text>
<line x1="24" y1="601.2" x2="336" y2="601.2" stroke="#3a3a45" stroke-width="0.5" stroke-dasharray="2 3"/>
<text x="338" y="600.2" fill="#5a5a70">7H</text>
<line x1="24" y1="678.8" x2="336" y2="678.8" stroke="#3a3a45" stroke-width="0.5" stroke-dasharray="2 3"/>
<text x="338" y="677.8" fill="#5a5a70">8H</text>
<line x1="180.0" y1="24" x2="180.0" y2="696" stroke="#2a2a32" stroke-width="0.4"/>
<path d="M 6.7,58.5 L 10.1,58.5 L 13.0,58.5 L 14.9,58.5 L 15.6,58.5 L 14.9,58.5 L 13.0,58.5 L 10.1,58.5 L 6.7,58.5 L 3.3,58.5 L 0.4,58.5 L -1.5,58.5 L -2.2,58.5 L -1.5,58.5 L 0.4,58.5 L 3.3,58.5 L 6.7,58.5" stroke="#6a8aa8" stroke-width="0.5" fill="none" opacity="0.55"/>
<path d="M 6.7,65.4 L 13.7,65.4 L 19.7,65.4 L 23.6,65.4 L 25.0,65.4 L 23.6,65.4 L 19.7,65.4 L 13.7,65.4 L 6.7,65.4 L -0.4,65.4 L -6.3,65.4 L -10.3,65.4 L -11.7,65.4 L -10.3,65.4 L -6.3,65.4 L -0.4,65.4 L 6.7,65.4" stroke="#6a8aa8" stroke-width="0.5" fill="none" opacity="0.55"/>
<path d="M 6.7,66.2 L 17.8,66.2 L 27.2,66.2 L 33.5,66.2 L 35.7,66.2 L 33.5,66.2 L 27.2,66.2 L 17.8,66.2 L 6.7,66.2 L -4.4,66.2 L -13.9,66.2 L -20.2,66.2 L -22.4,66.2 L -20.2,66.2 L -13.9,66.2 L -4.4,66.2 L 6.7,66.2" stroke="#6a8aa8" stroke-width="0.5" fill="none" opacity="0.55"/>
<path d="M 6.7,73.1 L 17.7,73.1 L 27.0,73.1 L 33.2,73.1 L 35.4,73.1 L 33.2,73.1 L 27.0,73.1 L 17.7,73.1 L 6.7,73.1 L -4.3,73.1 L -13.7,73.1 L -19.9,73.1 L -22.1,73.1 L -19.9,73.1 L -13.7,73.1 L -4.3,73.1 L 6.7,73.1" stroke="#6a8aa8" stroke-width="0.5" fill="none" opacity="0.55"/>
<path d="M 6.7,82.5 L 18.0,82.5 L 27.6,82.5 L 34.1,82.5 L 36.3,82.5 L 34.1,82.5 L 27.6,82.5 L 18.0,82.5 L 6.7,82.5 L -4.7,82.5 L -14.3,82.5 L -20.7,82.5 L -23.0,82.5 L -20.7,82.5 L -14.3,82.5 L -4.7,82.5 L 6.7,82.5" stroke="#6a8aa8" stroke-width="0.5" fill="none" opacity="0.55"/>
<path d="M 6.7,97.2 L 17.8,97.2 L 27.2,97.2 L 33.5,97.2 L 35.7,97.2 L 33.5,97.2 L 27.2,97.2 L 17.8,97.2 L 6.7,97.2 L -4.4,97.2 L -13.9,97.2 L -20.2,97.2 L -22.4,97.2 L -20.2,97.2 L -13.9,97.2 L -4.4,97.2 L 6.7,97.2" stroke="#6a8aa8" stroke-width="0.5" fill="none" opacity="0.55"/>
<path d="M 6.7,104.1 L 17.6,104.1 L 26.8,104.1 L 33.0,104.1 L 35.1,104.1 L 33.0,104.1 L 26.8,104.1 L 17.6,104.1 L 6.7,104.1 L -4.2,104.1 L -13.5,104.1 L -19.6,104.1 L -21.8,104.1 L -19.6,104.1 L -13.5,104.1 L -4.2,104.1 L 6.7,104.1" stroke="#6a8aa8" stroke-width="0.5" fill="none" opacity="0.55"/>
<path d="M 6.7,114.3 L 15.5,114.3 L 23.0,114.3 L 28.0,114.3 L 29.8,114.3 L 28.0,114.3 L 23.0,114.3 L 15.5,114.3 L 6.7,114.3 L -2.2,114.3 L -9.7,114.3 L -14.7,114.3 L -16.5,114.3 L -14.7,114.3 L -9.7,114.3 L -2.2,114.3 L 6.7,114.3" stroke="#6a8aa8" stroke-width="0.5" fill="none" opacity="0.55"/>
<path d="M 6.7,117.2 L 16.6,117.2 L 25.1,117.2 L 30.8,117.2 L 32.7,117.2 L 30.8,117.2 L 25.1,117.2 L 16.6,117.2 L 6.7,117.2 L -3.3,117.2 L -11.8,117.2 L -17.4,117.2 L -19.4,117.2 L -17.4,117.2 L -11.8,117.2 L -3.3,117.2 L 6.7,117.2" stroke="#6a8aa8" stroke-width="0.5" fill="none" opacity="0.55"/>
<path d="M 6.7,118.9 L 16.0,118.9 L 23.9,118.9 L 29.1,118.9 L 31.0,118.9 L 29.1,118.9 L 23.9,118.9 L 16.0,118.9 L 6.7,118.9 L -2.6,118.9 L -10.5,118.9 L -15.8,118.9 L -17.6,118.9 L -15.8,118.9 L -10.5,118.9 L -2.6,118.9 L 6.7,118.9" stroke="#6a8aa8" stroke-width="0.5" fill="none" opacity="0.55"/>
<path d="M 6.7,121.7 L 15.5,121.7 L 23.0,121.7 L 28.0,121.7 L 29.8,121.7 L 28.0,121.7 L 23.0,121.7 L 15.5,121.7 L 6.7,121.7 L -2.2,121.7 L -9.7,121.7 L -14.7,121.7 L -16.5,121.7 L -14.7,121.7 L -9.7,121.7 L -2.2,121.7 L 6.7,121.7" stroke="#6a8aa8" stroke-width="0.5" fill="none" opacity="0.55"/>
<path d="M 6.7,132.6 L 14.2,132.6 L 20.5,132.6 L 24.7,132.6 L 26.2,132.6 L 24.7,132.6 L 20.5,132.6 L 14.2,132.6 L 6.7,132.6 L -0.8,132.6 L -7.2,132.6 L -11.4,132.6 L -12.9,132.6 L -11.4,132.6 L -7.2,132.6 L -0.8,132.6 L 6.7,132.6" stroke="#6a8aa8" stroke-width="0.5" fill="none" opacity="0.55"/>
<path d="M 6.7,136.0 L 12.3,136.0 L 17.1,136.0 L 20.4,136.0 L 21.5,136.0 L 20.4,136.0 L 17.1,136.0 L 12.3,136.0 L 6.7,136.0 L 1.0,136.0 L -3.8,136.0 L -7.0,136.0 L -8.2,136.0 L -7.0,136.0 L -3.8,136.0 L 1.0,136.0 L 6.7,136.0" stroke="#6a8aa8" stroke-width="0.5" fill="none" opacity="0.55"/>
<path d="M 6.7,139.9 L 13.5,139.9 L 19.2,139.9 L 23.1,139.9 L 24.5,139.9 L 23.1,139.9 L 19.2,139.9 L 13.5,139.9 L 6.7,139.9 L -0.1,139.9 L -5.9,139.9 L -9.8,139.9 L -11.1,139.9 L -9.8,139.9 L -5.9,139.9 L -0.1,139.9 L 6.7,139.9" stroke="#6a8aa8" stroke-width="0.5" fill="none" opacity="0.55"/>
<path d="M 6.7,149.6 L 13.8,149.6 L 19.9,149.6 L 23.9,149.6 L 25.3,149.6 L 23.9,149.6 L 19.9,149.6 L 13.8,149.6 L 6.7,149.6 L -0.5,149.6 L -6.5,149.6 L -10.6,149.6 L -12.0,149.6 L -10.6,149.6 L -6.5,149.6 L -0.5,149.6 L 6.7,149.6" stroke="#6a8aa8" stroke-width="0.5" fill="none" opacity="0.55"/>
<path d="M 6.7,159.3 L 14.5,159.3 L 21.1,159.3 L 25.6,159.3 L 27.1,159.3 L 25.6,159.3 L 21.1,159.3 L 14.5,159.3 L 6.7,159.3 L -1.2,159.3 L -7.8,159.3 L -12.2,159.3 L -13.8,159.3 L -12.2,159.3 L -7.8,159.3 L -1.2,159.3 L 6.7,159.3" stroke="#6a8aa8" stroke-width="0.5" fill="none" opacity="0.55"/>
<path d="M 6.7,162.0 L 20.4,162.0 L 32.1,162.0 L 39.9,162.0 L 42.7,162.0 L 39.9,162.0 L 32.1,162.0 L 20.4,162.0 L 6.7,162.0 L -7.1,162.0 L -18.8,162.0 L -26.6,162.0 L -29.3,162.0 L -26.6,162.0 L -18.8,162.0 L -7.1,162.0 L 6.7,162.0" stroke="#6a8aa8" stroke-width="0.5" fill="none" opacity="0.55"/>
<path d="M 6.7,165.5 L 28.7,165.5 L 47.4,165.5 L 59.9,165.5 L 64.3,165.5 L 59.9,165.5 L 47.4,165.5 L 28.7,165.5 L 6.7,165.5 L -15.4,165.5 L -34.1,165.5 L -46.6,165.5 L -51.0,165.5 L -46.6,165.5 L -34.1,165.5 L -15.4,165.5 L 6.7,165.5" stroke="#6a8aa8" stroke-width="0.5" fill="none" opacity="0.55"/>
<path d="M 6.7,168.9 L 34.8,168.9 L 58.7,168.9 L 74.7,168.9 L 80.3,168.9 L 74.7,168.9 L 58.7,168.9 L 34.8,168.9 L 6.7,168.9 L -21.5,168.9 L -45.4,168.9 L -61.4,168.9 L -67.0,168.9 L -61.4,168.9 L -45.4,168.9 L -21.5,168.9 L 6.7,168.9" stroke="#6a8aa8" stroke-width="0.5" fill="none" opacity="0.55"/>
<path d="M 6.7,170.9 L 37.3,170.9 L 63.3,170.9 L 80.6,170.9 L 86.7,170.9 L 80.6,170.9 L 63.3,170.9 L 37.3,170.9 L 6.7,170.9 L -24.0,170.9 L -49.9,170.9 L -67.3,170.9 L -73.4,170.9 L -67.3,170.9 L -49.9,170.9 L -24.0,170.9 L 6.7,170.9" stroke="#6a8aa8" stroke-width="0.5" fill="none" opacity="0.55"/>
<path d="M 6.7,196.3 L 34.8,196.3 L 58.7,196.3 L 74.7,196.3 L 80.3,196.3 L 74.7,196.3 L 58.7,196.3 L 34.8,196.3 L 6.7,196.3 L -21.5,196.3 L -45.4,196.3 L -61.4,196.3 L -67.0,196.3 L -61.4,196.3 L -45.4,196.3 L -21.5,196.3 L 6.7,196.3" stroke="#6a8aa8" stroke-width="0.5" fill="none" opacity="0.55"/>
<path d="M 6.7,213.5 L 31.8,213.5 L 53.1,213.5 L 67.3,213.5 L 72.3,213.5 L 67.3,213.5 L 53.1,213.5 L 31.8,213.5 L 6.7,213.5 L -18.4,213.5 L -39.7,213.5 L -54.0,213.5 L -59.0,213.5 L -54.0,213.5 L -39.7,213.5 L -18.4,213.5 L 6.7,213.5" stroke="#6a8aa8" stroke-width="0.5" fill="none" opacity="0.55"/>
<path d="M 6.7,234.2 L 29.3,234.2 L 48.5,234.2 L 61.4,234.2 L 65.9,234.2 L 61.4,234.2 L 48.5,234.2 L 29.3,234.2 L 6.7,234.2 L -16.0,234.2 L -35.2,234.2 L -48.0,234.2 L -52.6,234.2 L -48.0,234.2 L -35.2,234.2 L -16.0,234.2 L 6.7,234.2" stroke="#6a8aa8" stroke-width="0.5" fill="none" opacity="0.55"/>
<path d="M 6.7,251.4 L 26.0,251.4 L 42.4,251.4 L 53.4,251.4 L 57.2,251.4 L 53.4,251.4 L 42.4,251.4 L 26.0,251.4 L 6.7,251.4 L -12.7,251.4 L -29.1,251.4 L -40.0,251.4 L -43.9,251.4 L -40.0,251.4 L -29.1,251.4 L -12.7,251.4 L 6.7,251.4" stroke="#6a8aa8" stroke-width="0.5" fill="none" opacity="0.55"/>
<path d="M 6.7,291.1 L 24.2,291.1 L 39.2,291.1 L 49.1,291.1 L 52.6,291.1 L 49.1,291.1 L 39.2,291.1 L 24.2,291.1 L 6.7,291.1 L -10.9,291.1 L -25.8,291.1 L -35.8,291.1 L -39.3,291.1 L -35.8,291.1 L -25.8,291.1 L -10.9,291.1 L 6.7,291.1" stroke="#6a8aa8" stroke-width="0.5" fill="none" opacity="0.55"/>
<path d="M 6.7,308.3 L 26.8,308.3 L 43.9,308.3 L 55.3,308.3 L 59.3,308.3 L 55.3,308.3 L 43.9,308.3 L 26.8,308.3 L 6.7,308.3 L -13.5,308.3 L -30.6,308.3 L -42.0,308.3 L -46.0,308.3 L -42.0,308.3 L -30.6,308.3 L -13.5,308.3 L 6.7,308.3" stroke="#6a8aa8" stroke-width="0.5" fill="none" opacity="0.55"/>
<path d="M 6.7,347.9 L 27.7,347.9 L 45.4,347.9 L 57.3,347.9 L 61.5,347.9 L 57.3,347.9 L 45.4,347.9 L 27.7,347.9 L 6.7,347.9 L -14.3,347.9 L -32.1,347.9 L -44.0,347.9 L -48.2,347.9 L -44.0,347.9 L -32.1,347.9 L -14.3,347.9 L 6.7,347.9" stroke="#6a8aa8" stroke-width="0.5" fill="none" opacity="0.55"/>
<path d="M 6.7,368.6 L 24.5,368.6 L 39.6,368.6 L 49.7,368.6 L 53.3,368.6 L 49.7,368.6 L 39.6,368.6 L 24.5,368.6 L 6.7,368.6 L -11.2,368.6 L -26.3,368.6 L -36.4,368.6 L -39.9,368.6 L -36.4,368.6 L -26.3,368.6 L -11.2,368.6 L 6.7,368.6" stroke="#6a8aa8" stroke-width="0.5" fill="none" opacity="0.55"/>
<path d="M 6.7,382.4 L 16.8,382.4 L 25.5,382.4 L 31.2,382.4 L 33.3,382.4 L 31.2,382.4 L 25.5,382.4 L 16.8,382.4 L 6.7,382.4 L -3.5,382.4 L -12.1,382.4 L -17.9,382.4 L -19.9,382.4 L -17.9,382.4 L -12.1,382.4 L -3.5,382.4 L 6.7,382.4" stroke="#6a8aa8" stroke-width="0.5" fill="none" opacity="0.55"/>
<path d="M 6.7,446.2 L 15.5,446.2 L 23.0,446.2 L 28.0,446.2 L 29.8,446.2 L 28.0,446.2 L 23.0,446.2 L 15.5,446.2 L 6.7,446.2 L -2.2,446.2 L -9.7,446.2 L -14.7,446.2 L -16.5,446.2 L -14.7,446.2 L -9.7,446.2 L -2.2,446.2 L 6.7,446.2" stroke="#6a8aa8" stroke-width="0.5" fill="none" opacity="0.55"/>
<path d="M 6.7,469.4 L 13.6,469.4 L 19.4,469.4 L 23.3,469.4 L 24.7,469.4 L 23.3,469.4 L 19.4,469.4 L 13.6,469.4 L 6.7,469.4 L -0.2,469.4 L -6.1,469.4 L -10.0,469.4 L -11.4,469.4 L -10.0,469.4 L -6.1,469.4 L -0.2,469.4 L 6.7,469.4" stroke="#6a8aa8" stroke-width="0.5" fill="none" opacity="0.55"/>
<path d="M 6.7,523.7 L 11.5,523.7 L 15.7,523.7 L 18.4,523.7 L 19.4,523.7 L 18.4,523.7 L 15.7,523.7 L 11.5,523.7 L 6.7,523.7 L 1.8,523.7 L -2.3,523.7 L -5.1,523.7 L -6.0,523.7 L -5.1,523.7 L -2.3,523.7 L 1.8,523.7 L 6.7,523.7" stroke="#6a8aa8" stroke-width="0.5" fill="none" opacity="0.55"/>
<path d="M 6.7,550.8 L 12.2,550.8 L 16.8,550.8 L 19.9,550.8 L 21.0,550.8 L 19.9,550.8 L 16.8,550.8 L 12.2,550.8 L 6.7,550.8 L 1.2,550.8 L -3.5,550.8 L -6.6,550.8 L -7.7,550.8 L -6.6,550.8 L -3.5,550.8 L 1.2,550.8 L 6.7,550.8" stroke="#6a8aa8" stroke-width="0.5" fill="none" opacity="0.55"/>
<path d="M 6.7,601.2 L 11.1,601.2 L 14.8,601.2 L 17.3,601.2 L 18.2,601.2 L 17.3,601.2 L 14.8,601.2 L 11.1,601.2 L 6.7,601.2 L 2.2,601.2 L -1.5,601.2 L -4.0,601.2 L -4.9,601.2 L -4.0,601.2 L -1.5,601.2 L 2.2,601.2 L 6.7,601.2" stroke="#6a8aa8" stroke-width="0.5" fill="none" opacity="0.55"/>
<path d="M 6.7,655.5 L 9.8,655.5 L 12.4,655.5 L 14.1,655.5 L 14.8,655.5 L 14.1,655.5 L 12.4,655.5 L 9.8,655.5 L 6.7,655.5 L 3.6,655.5 L 0.9,655.5 L -0.8,655.5 L -1.4,655.5 L -0.8,655.5 L 0.9,655.5 L 3.6,655.5 L 6.7,655.5" stroke="#6a8aa8" stroke-width="0.5" fill="none" opacity="0.55"/>
<path d="M 6.7,668.4 L 10.6,668.4 L 14.0,668.4 L 16.3,668.4 L 17.1,668.4 L 16.3,668.4 L 14.0,668.4 L 10.6,668.4 L 6.7,668.4 L 2.7,668.4 L -0.7,668.4 L -2.9,668.4 L -3.7,668.4 L -2.9,668.4 L -0.7,668.4 L 2.7,668.4 L 6.7,668.4" stroke="#6a8aa8" stroke-width="0.5" fill="none" opacity="0.55"/>
<path d="M 6.7,678.8 L 10.0,678.8 L 12.9,678.8 L 14.8,678.8 L 15.5,678.8 L 14.8,678.8 L 12.9,678.8 L 10.0,678.8 L 6.7,678.8 L 3.3,678.8 L 0.5,678.8 L -1.4,678.8 L -2.1,678.8 L -1.4,678.8 L 0.5,678.8 L 3.3,678.8 L 6.7,678.8" stroke="#6a8aa8" stroke-width="0.5" fill="none" opacity="0.55"/>
<path d="M 6.7,58.5 L 6.7,65.4 L 6.7,66.2 L 6.7,73.1 L 6.7,82.5 L 6.7,97.2 L 6.7,104.1 L 6.7,114.3 L 6.7,117.2 L 6.7,118.9 L 6.7,121.7 L 6.7,132.6 L 6.7,136.0 L 6.7,139.9 L 6.7,149.6 L 6.7,159.3 L 6.7,162.0 L 6.7,165.5 L 6.7,168.9 L 6.7,170.9 L 6.7,196.3 L 6.7,213.5 L 6.7,234.2 L 6.7,251.4 L 6.7,291.1 L 6.7,308.3 L 6.7,347.9 L 6.7,368.6 L 6.7,382.4 L 6.7,446.2 L 6.7,469.4 L 6.7,523.7 L 6.7,550.8 L 6.7,601.2 L 6.7,655.5 L 6.7,668.4 L 6.7,678.8" stroke="#6a8aa8" stroke-width="0.5" fill="none" opacity="0.65"/>
<path d="M 13.0,58.5 L 19.7,65.4 L 27.2,66.2 L 27.0,73.1 L 27.6,82.5 L 27.2,97.2 L 26.8,104.1 L 23.0,114.3 L 25.1,117.2 L 23.9,118.9 L 23.0,121.7 L 20.5,132.6 L 17.1,136.0 L 19.2,139.9 L 19.9,149.6 L 21.1,159.3 L 32.1,162.0 L 47.4,165.5 L 58.7,168.9 L 63.3,170.9 L 58.7,196.3 L 53.1,213.5 L 48.5,234.2 L 42.4,251.4 L 39.2,291.1 L 43.9,308.3 L 45.4,347.9 L 39.6,368.6 L 25.5,382.4 L 23.0,446.2 L 19.4,469.4 L 15.7,523.7 L 16.8,550.8 L 14.8,601.2 L 12.4,655.5 L 14.0,668.4 L 12.9,678.8" stroke="#6a8aa8" stroke-width="0.5" fill="none" opacity="0.65"/>
<path d="M 15.6,58.5 L 25.0,65.4 L 35.7,66.2 L 35.4,73.1 L 36.3,82.5 L 35.7,97.2 L 35.1,104.1 L 29.8,114.3 L 32.7,117.2 L 31.0,118.9 L 29.8,121.7 L 26.2,132.6 L 21.5,136.0 L 24.5,139.9 L 25.3,149.6 L 27.1,159.3 L 42.7,162.0 L 64.3,165.5 L 80.3,168.9 L 86.7,170.9 L 80.3,196.3 L 72.3,213.5 L 65.9,234.2 L 57.2,251.4 L 52.6,291.1 L 59.3,308.3 L 61.5,347.9 L 53.3,368.6 L 33.3,382.4 L 29.8,446.2 L 24.7,469.4 L 19.4,523.7 L 21.0,550.8 L 18.2,601.2 L 14.8,655.5 L 17.1,668.4 L 15.5,678.8" stroke="#6a8aa8" stroke-width="0.5" fill="none" opacity="0.65"/>
<path d="M 13.0,58.5 L 19.7,65.4 L 27.2,66.2 L 27.0,73.1 L 27.6,82.5 L 27.2,97.2 L 26.8,104.1 L 23.0,114.3 L 25.1,117.2 L 23.9,118.9 L 23.0,121.7 L 20.5,132.6 L 17.1,136.0 L 19.2,139.9 L 19.9,149.6 L 21.1,159.3 L 32.1,162.0 L 47.4,165.5 L 58.7,168.9 L 63.3,170.9 L 58.7,196.3 L 53.1,213.5 L 48.5,234.2 L 42.4,251.4 L 39.2,291.1 L 43.9,308.3 L 45.4,347.9 L 39.6,368.6 L 25.5,382.4 L 23.0,446.2 L 19.4,469.4 L 15.7,523.7 L 16.8,550.8 L 14.8,601.2 L 12.4,655.5 L 14.0,668.4 L 12.9,678.8" stroke="#6a8aa8" stroke-width="0.5" fill="none" opacity="0.65"/>
<path d="M 6.7,58.5 L 6.7,65.4 L 6.7,66.2 L 6.7,73.1 L 6.7,82.5 L 6.7,97.2 L 6.7,104.1 L 6.7,114.3 L 6.7,117.2 L 6.7,118.9 L 6.7,121.7 L 6.7,132.6 L 6.7,136.0 L 6.7,139.9 L 6.7,149.6 L 6.7,159.3 L 6.7,162.0 L 6.7,165.5 L 6.7,168.9 L 6.7,170.9 L 6.7,196.3 L 6.7,213.5 L 6.7,234.2 L 6.7,251.4 L 6.7,291.1 L 6.7,308.3 L 6.7,347.9 L 6.7,368.6 L 6.7,382.4 L 6.7,446.2 L 6.7,469.4 L 6.7,523.7 L 6.7,550.8 L 6.7,601.2 L 6.7,655.5 L 6.7,668.4 L 6.7,678.8" stroke="#6a8aa8" stroke-width="0.5" fill="none" opacity="0.65"/>
<path d="M 0.4,58.5 L -6.3,65.4 L -13.9,66.2 L -13.7,73.1 L -14.3,82.5 L -13.9,97.2 L -13.5,104.1 L -9.7,114.3 L -11.8,117.2 L -10.5,118.9 L -9.7,121.7 L -7.2,132.6 L -3.8,136.0 L -5.9,139.9 L -6.5,149.6 L -7.8,159.3 L -18.8,162.0 L -34.1,165.5 L -45.4,168.9 L -49.9,170.9 L -45.4,196.3 L -39.7,213.5 L -35.2,234.2 L -29.1,251.4 L -25.8,291.1 L -30.6,308.3 L -32.1,347.9 L -26.3,368.6 L -12.1,382.4 L -9.7,446.2 L -6.1,469.4 L -2.3,523.7 L -3.5,550.8 L -1.5,601.2 L 0.9,655.5 L -0.7,668.4 L 0.5,678.8" stroke="#6a8aa8" stroke-width="0.5" fill="none" opacity="0.65"/>
<path d="M -2.2,58.5 L -11.7,65.4 L -22.4,66.2 L -22.1,73.1 L -23.0,82.5 L -22.4,97.2 L -21.8,104.1 L -16.5,114.3 L -19.4,117.2 L -17.6,118.9 L -16.5,121.7 L -12.9,132.6 L -8.2,136.0 L -11.1,139.9 L -12.0,149.6 L -13.8,159.3 L -29.3,162.0 L -51.0,165.5 L -67.0,168.9 L -73.4,170.9 L -67.0,196.3 L -59.0,213.5 L -52.6,234.2 L -43.9,251.4 L -39.3,291.1 L -46.0,308.3 L -48.2,347.9 L -39.9,368.6 L -19.9,382.4 L -16.5,446.2 L -11.4,469.4 L -6.0,523.7 L -7.7,550.8 L -4.9,601.2 L -1.4,655.5 L -3.7,668.4 L -2.1,678.8" stroke="#6a8aa8" stroke-width="0.5" fill="none" opacity="0.65"/>
<path d="M 0.4,58.5 L -6.3,65.4 L -13.9,66.2 L -13.7,73.1 L -14.3,82.5 L -13.9,97.2 L -13.5,104.1 L -9.7,114.3 L -11.8,117.2 L -10.5,118.9 L -9.7,121.7 L -7.2,132.6 L -3.8,136.0 L -5.9,139.9 L -6.5,149.6 L -7.8,159.3 L -18.8,162.0 L -34.1,165.5 L -45.4,168.9 L -49.9,170.9 L -45.4,196.3 L -39.7,213.5 L -35.2,234.2 L -29.1,251.4 L -25.8,291.1 L -30.6,308.3 L -32.1,347.9 L -26.3,368.6 L -12.1,382.4 L -9.7,446.2 L -6.1,469.4 L -2.3,523.7 L -3.5,550.8 L -1.5,601.2 L 0.9,655.5 L -0.7,668.4 L 0.5,678.8" stroke="#6a8aa8" stroke-width="0.5" fill="none" opacity="0.65"/>
<path d="M 74.7,174.3 L 81.4,174.3 L 84.2,174.3 L 81.4,174.3 L 74.7,174.3 L 68.0,174.3 L 65.2,174.3 L 68.0,174.3 L 74.7,174.3" stroke="#a0b8c8" stroke-width="0.5" fill="none" opacity="0.6"/>
<path d="M 73.9,220.3 L 80.3,220.3 L 83.0,220.3 L 80.3,220.3 L 73.9,220.3 L 67.4,220.3 L 64.7,220.3 L 67.4,220.3 L 73.9,220.3" stroke="#a0b8c8" stroke-width="0.5" fill="none" opacity="0.6"/>
<path d="M 73.0,266.2 L 79.3,266.2 L 81.8,266.2 L 79.3,266.2 L 73.0,266.2 L 66.8,266.2 L 64.2,266.2 L 66.8,266.2 L 73.0,266.2" stroke="#a0b8c8" stroke-width="0.5" fill="none" opacity="0.6"/>
<path d="M 72.2,312.2 L 78.2,312.2 L 80.6,312.2 L 78.2,312.2 L 72.2,312.2 L 66.2,312.2 L 63.8,312.2 L 66.2,312.2 L 72.2,312.2" stroke="#a0b8c8" stroke-width="0.5" fill="none" opacity="0.6"/>
<path d="M 71.4,358.1 L 77.1,358.1 L 79.5,358.1 L 77.1,358.1 L 71.4,358.1 L 65.7,358.1 L 63.3,358.1 L 65.7,358.1 L 71.4,358.1" stroke="#a0b8c8" stroke-width="0.5" fill="none" opacity="0.6"/>
<path d="M 70.6,404.1 L 76.0,404.1 L 78.3,404.1 L 76.0,404.1 L 70.6,404.1 L 65.1,404.1 L 62.8,404.1 L 65.1,404.1 L 70.6,404.1" stroke="#a0b8c8" stroke-width="0.5" fill="none" opacity="0.6"/>
<path d="M 69.7,450.0 L 75.0,450.0 L 77.1,450.0 L 75.0,450.0 L 69.7,450.0 L 64.5,450.0 L 62.3,450.0 L 64.5,450.0 L 69.7,450.0" stroke="#a0b8c8" stroke-width="0.5" fill="none" opacity="0.6"/>
<path d="M 71.5,470.7 L 77.0,470.7 L 79.2,470.7 L 77.0,470.7 L 71.5,470.7 L 66.0,470.7 L 63.7,470.7 L 66.0,470.7 L 71.5,470.7" stroke="#a0b8c8" stroke-width="0.5" fill="none" opacity="0.6"/>
<path d="M 74.7,174.3 L 73.9,220.3 L 73.0,266.2 L 72.2,312.2 L 71.4,358.1 L 70.6,404.1 L 69.7,450.0 L 71.5,470.7" stroke="#a0b8c8" stroke-width="0.5" fill="none" opacity="0.65"/>
<path d="M 84.2,174.3 L 83.0,220.3 L 81.8,266.2 L 80.6,312.2 L 79.5,358.1 L 78.3,404.1 L 77.1,450.0 L 79.2,470.7" stroke="#a0b8c8" stroke-width="0.5" fill="none" opacity="0.65"/>
<path d="M 74.7,174.3 L 73.9,220.3 L 73.0,266.2 L 72.2,312.2 L 71.4,358.1 L 70.6,404.1 L 69.7,450.0 L 71.5,470.7" stroke="#a0b8c8" stroke-width="0.5" fill="none" opacity="0.65"/>
<path d="M 65.2,174.3 L 64.7,220.3 L 64.2,266.2 L 63.8,312.2 L 63.3,358.1 L 62.8,404.1 L 62.3,450.0 L 63.7,470.7" stroke="#a0b8c8" stroke-width="0.5" fill="none" opacity="0.65"/>
<path d="M -61.4,174.3 L -54.7,174.3 L -51.9,174.3 L -54.7,174.3 L -61.4,174.3 L -68.1,174.3 L -70.8,174.3 L -68.1,174.3 L -61.4,174.3" stroke="#a0b8c8" stroke-width="0.5" fill="none" opacity="0.6"/>
<path d="M -60.5,220.3 L -54.1,220.3 L -51.4,220.3 L -54.1,220.3 L -60.5,220.3 L -67.0,220.3 L -69.7,220.3 L -67.0,220.3 L -60.5,220.3" stroke="#a0b8c8" stroke-width="0.5" fill="none" opacity="0.6"/>
<path d="M -59.7,266.2 L -53.5,266.2 L -50.9,266.2 L -53.5,266.2 L -59.7,266.2 L -65.9,266.2 L -68.5,266.2 L -65.9,266.2 L -59.7,266.2" stroke="#a0b8c8" stroke-width="0.5" fill="none" opacity="0.6"/>
<path d="M -58.9,312.2 L -52.9,312.2 L -50.4,312.2 L -52.9,312.2 L -58.9,312.2 L -64.8,312.2 L -67.3,312.2 L -64.8,312.2 L -58.9,312.2" stroke="#a0b8c8" stroke-width="0.5" fill="none" opacity="0.6"/>
<path d="M -58.0,358.1 L -52.3,358.1 L -50.0,358.1 L -52.3,358.1 L -58.0,358.1 L -63.8,358.1 L -66.1,358.1 L -63.8,358.1 L -58.0,358.1" stroke="#a0b8c8" stroke-width="0.5" fill="none" opacity="0.6"/>
<path d="M -57.2,404.1 L -51.7,404.1 L -49.5,404.1 L -51.7,404.1 L -57.2,404.1 L -62.7,404.1 L -65.0,404.1 L -62.7,404.1 L -57.2,404.1" stroke="#a0b8c8" stroke-width="0.5" fill="none" opacity="0.6"/>
<path d="M -56.4,450.0 L -51.2,450.0 L -49.0,450.0 L -51.2,450.0 L -56.4,450.0 L -61.6,450.0 L -63.8,450.0 L -61.6,450.0 L -56.4,450.0" stroke="#a0b8c8" stroke-width="0.5" fill="none" opacity="0.6"/>
<path d="M -58.1,470.7 L -52.6,470.7 L -50.4,470.7 L -52.6,470.7 L -58.1,470.7 L -63.6,470.7 L -65.9,470.7 L -63.6,470.7 L -58.1,470.7" stroke="#a0b8c8" stroke-width="0.5" fill="none" opacity="0.6"/>
<path d="M -61.4,174.3 L -60.5,220.3 L -59.7,266.2 L -58.9,312.2 L -58.0,358.1 L -57.2,404.1 L -56.4,450.0 L -58.1,470.7" stroke="#a0b8c8" stroke-width="0.5" fill="none" opacity="0.65"/>
<path d="M -51.9,174.3 L -51.4,220.3 L -50.9,266.2 L -50.4,312.2 L -50.0,358.1 L -49.5,404.1 L -49.0,450.0 L -50.4,470.7" stroke="#a0b8c8" stroke-width="0.5" fill="none" opacity="0.65"/>
<path d="M -61.4,174.3 L -60.5,220.3 L -59.7,266.2 L -58.9,312.2 L -58.0,358.1 L -57.2,404.1 L -56.4,450.0 L -58.1,470.7" stroke="#a0b8c8" stroke-width="0.5" fill="none" opacity="0.65"/>
<path d="M -70.8,174.3 L -69.7,220.3 L -68.5,266.2 L -67.3,312.2 L -66.1,358.1 L -65.0,404.1 L -63.8,450.0 L -65.9,470.7" stroke="#a0b8c8" stroke-width="0.5" fill="none" opacity="0.65"/>
<path d="M -2.2,58.0 L -22.4,66.0 L -22.1,74.0 L -23.0,82.0 L -22.4,98.0 L -21.8,106.0 L -16.5,114.0 L -19.4,118.0 L -16.5,122.0 L -12.9,134.0 L -11.1,138.0 L -12.0,150.0 L -13.8,158.0 L -29.3,162.0 L -51.0,166.0 L -73.4,170.0 L -70.8,174.0 L -67.0,198.0 L -59.0,214.0 L -69.7,222.0 L -52.6,234.0 L -43.9,250.0 L -68.5,266.0 L -39.3,290.0 L -46.0,310.0 L -67.3,314.0 L -48.2,346.0 L -66.1,358.0 L -39.9,370.0 L -19.9,382.0 L -65.0,406.0 L -16.5,446.0 L -63.8,450.0 L -65.9,470.0 L -6.0,522.0 L -7.7,550.0 L -4.9,602.0 L -1.4,654.0 L -3.7,670.0 L -2.1,678.0 L 15.5,678.0 L 17.1,670.0 L 14.8,654.0 L 18.2,602.0 L 21.0,550.0 L 19.4,522.0 L 79.2,470.0 L 77.1,450.0 L 29.8,446.0 L 78.3,406.0 L 33.3,382.0 L 53.3,370.0 L 79.5,358.0 L 61.5,346.0 L 80.6,314.0 L 59.3,310.0 L 52.6,290.0 L 81.8,266.0 L 57.2,250.0 L 65.9,234.0 L 83.0,222.0 L 72.3,214.0 L 80.3,198.0 L 84.2,174.0 L 86.7,170.0 L 64.3,166.0 L 42.7,162.0 L 27.1,158.0 L 25.3,150.0 L 24.5,138.0 L 26.2,134.0 L 29.8,122.0 L 32.7,118.0 L 29.8,114.0 L 35.1,106.0 L 35.7,98.0 L 36.3,82.0 L 35.4,74.0 L 35.7,66.0 L 15.6,58.0 Z" fill="#c8a880" fill-opacity="0.13" stroke="#e0c898" stroke-width="1.2" stroke-opacity="0.55"/>
<line x1="18" y1="58.5" x2="24" y2="58.5" stroke="#dd8855" stroke-width="1.2"/>
<text x="14" y="61.5" fill="#dd8855" text-anchor="end">crown</text>
<line x1="18" y1="82.5" x2="24" y2="82.5" stroke="#dd8855" stroke-width="1.2"/>
<text x="14" y="85.5" fill="#dd8855" text-anchor="end">brow</text>
<line x1="18" y1="97.2" x2="24" y2="97.2" stroke="#dd8855" stroke-width="1.2"/>
<text x="14" y="100.2" fill="#dd8855" text-anchor="end">eye</text>
<line x1="18" y1="114.3" x2="24" y2="114.3" stroke="#dd8855" stroke-width="1.2"/>
<text x="14" y="117.3" fill="#dd8855" text-anchor="end">nose</text>
<line x1="18" y1="118.9" x2="24" y2="118.9" stroke="#dd8855" stroke-width="1.2"/>
<text x="14" y="121.9" fill="#dd8855" text-anchor="end">mouth</text>
<line x1="18" y1="136.0" x2="24" y2="136.0" stroke="#dd8855" stroke-width="1.2"/>
<text x="14" y="139.0" fill="#dd8855" text-anchor="end">chin</text>
<line x1="18" y1="170.9" x2="24" y2="170.9" stroke="#dd8855" stroke-width="1.2"/>
<text x="14" y="173.9" fill="#dd8855" text-anchor="end">clav</text>
<line x1="18" y1="213.5" x2="24" y2="213.5" stroke="#dd8855" stroke-width="1.2"/>
<text x="14" y="216.5" fill="#dd8855" text-anchor="end">nipple</text>
<line x1="18" y1="291.1" x2="24" y2="291.1" stroke="#dd8855" stroke-width="1.2"/>
<text x="14" y="294.1" fill="#dd8855" text-anchor="end">navel</text>
<line x1="18" y1="368.6" x2="24" y2="368.6" stroke="#dd8855" stroke-width="1.2"/>
<text x="14" y="371.6" fill="#dd8855" text-anchor="end">crotch</text>
<line x1="18" y1="523.7" x2="24" y2="523.7" stroke="#dd8855" stroke-width="1.2"/>
<text x="14" y="526.7" fill="#dd8855" text-anchor="end">knee</text>
<line x1="18" y1="655.5" x2="24" y2="655.5" stroke="#dd8855" stroke-width="1.2"/>
<text x="14" y="658.5" fill="#dd8855" text-anchor="end">ankle</text>
<text x="6" y="360.0" fill="#666" transform="rotate(-90 6 360.0)">Y (height, metres)</text>
</svg>