<?xml version="1.0" encoding="UTF-8"?>
<svg xmlns="http://www.w3.org/2000/svg" width="360" height="720" viewBox="0 0 360 720" style="background:#1a1a20;font-family:monospace;font-size:9px;">
<text x="24" y="18" fill="#aaa">female — SIDE view</text>
<line x1="24" y1="58.5" x2="336" y2="58.5" stroke="#3a3a45" stroke-width="0.5" stroke-dasharray="2 3"/>
<text x="338" y="57.5" fill="#5a5a70">0H</text>
<line x1="24" y1="136.0" x2="336" y2="136.0" stroke="#3a3a45" stroke-width="0.5" stroke-dasharray="2 3"/>
<text x="338" y="135.0" fill="#5a5a70">1H</text>
<line x1="24" y1="213.5" x2="336" y2="213.5" stroke="#3a3a45" stroke-width="0.5" stroke-dasharray="2 3"/>
<text x="338" y="212.5" fill="#5a5a70">2H</text>
<line x1="24" y1="291.1" x2="336" y2="291.1" stroke="#3a3a45" stroke-width="0.5" stroke-dasharray="2 3"/>
<text x="338" y="290.1" fill="#5a5a70">3H</text>
<line x1="24" y1="368.6" x2="336" y2="368.6" stroke="#3a3a45" stroke-width="0.5" stroke-dasharray="2 3"/>
<text x="338" y="367.6" fill="#5a5a70">4H</text>
<line x1="24" y1="446.2" x2="336" y2="446.2" stroke="#3a3a45" stroke-width="0.5" stroke-dasharray="2 3"/>
<text x="338" y="445.2" fill="#5a5a70">5H</text>
<line x1="24" y1="523.7" x2="336" y2="523.7" stroke="#3a3a45" stroke-width="0.5" stroke-dasharray="2 3"/>
<text x="338" y="522.7" fill="#5a5a70">6H</text>
<line x1="24" y1="601.2" x2="336" y2="601.2" stroke="#3a3a45" stroke-width="0.5" stroke-dasharray="2 3"/>
<text x="338" y="600.2" fill="#5a5a70">7H</text>
<line x1="24" y1="678.8" x2="336" y2="678.8" stroke="#3a3a45" stroke-width="0.5" stroke-dasharray="2 3"/>
<text x="338" y="677.8" fill="#5a5a70">8H</text>
<line x1="180.0" y1="24" x2="180.0" y2="696" stroke="#2a2a32" stroke-width="0.4"/>
<path d="M 196.0,58.5 L 194.8,58.5 L 191.3,58.5 L 186.1,58.5 L 180.0,58.5 L 173.9,58.5 L 168.7,58.5 L 165.2,58.5 L 164.0,58.5 L 165.2,58.5 L 168.7,58.5 L 173.9,58.5 L 180.0,58.5 L 186.1,58.5 L 191.3,58.5 L 194.8,58.5 L 196.0,58.5" stroke="#6a8aa8" stroke-width="0.5" fill="none" opacity="0.55"/>
<path d="M 217.3,65.4 L 214.5,65.4 L 206.4,65.4 L 194.3,65.4 L 180.0,65.4 L 165.7,65.4 L 153.6,65.4 L 145.5,65.4 L 142.7,65.4 L 145.5,65.4 L 153.6,65.4 L 165.7,65.4 L 180.0,65.4 L 194.3,65.4 L 206.4,65.4 L 214.5,65.4 L 217.3,65.4" stroke="#6a8aa8" stroke-width="0.5" fill="none" opacity="0.55"/>
<path d="M 231.2,66.2 L 227.3,66.2 L 216.2,66.2 L 199.6,66.2 L 180.0,66.2 L 160.4,66.2 L 143.8,66.2 L 132.7,66.2 L 128.8,66.2 L 132.7,66.2 L 143.8,66.2 L 160.4,66.2 L 180.0,66.2 L 199.6,66.2 L 216.2,66.2 L 227.3,66.2 L 231.2,66.2" stroke="#6a8aa8" stroke-width="0.5" fill="none" opacity="0.55"/>
<path d="M 230.2,73.1 L 226.3,73.1 L 215.5,73.1 L 199.2,73.1 L 180.0,73.1 L 160.8,73.1 L 144.5,73.1 L 133.7,73.1 L 129.8,73.1 L 133.7,73.1 L 144.5,73.1 L 160.8,73.1 L 180.0,73.1 L 199.2,73.1 L 215.5,73.1 L 226.3,73.1 L 230.2,73.1" stroke="#6a8aa8" stroke-width="0.5" fill="none" opacity="0.55"/>
<path d="M 230.2,82.5 L 226.3,82.5 L 215.5,82.5 L 199.2,82.5 L 180.0,82.5 L 160.8,82.5 L 144.5,82.5 L 133.7,82.5 L 129.8,82.5 L 133.7,82.5 L 144.5,82.5 L 160.8,82.5 L 180.0,82.5 L 199.2,82.5 L 215.5,82.5 L 226.3,82.5 L 230.2,82.5" stroke="#6a8aa8" stroke-width="0.5" fill="none" opacity="0.55"/>
<path d="M 229.1,97.2 L 216.0,97.2 L 214.7,97.2 L 198.8,97.2 L 180.0,97.2 L 161.2,97.2 L 145.3,97.2 L 134.7,97.2 L 130.9,97.2 L 134.7,97.2 L 145.3,97.2 L 161.2,97.2 L 180.0,97.2 L 198.8,97.2 L 214.7,97.2 L 216.0,97.2 L 229.1,97.2" stroke="#6a8aa8" stroke-width="0.5" fill="none" opacity="0.55"/>
<path d="M 228.0,104.1 L 224.4,104.1 L 217.1,104.1 L 198.4,104.1 L 180.0,104.1 L 161.6,104.1 L 146.0,104.1 L 135.6,104.1 L 132.0,104.1 L 135.6,104.1 L 146.0,104.1 L 161.6,104.1 L 180.0,104.1 L 198.4,104.1 L 217.1,104.1 L 224.4,104.1 L 228.0,104.1" stroke="#6a8aa8" stroke-width="0.5" fill="none" opacity="0.55"/>
<path d="M 230.9,114.3 L 227.4,114.3 L 212.4,114.3 L 197.6,114.3 L 180.0,114.3 L 162.4,114.3 L 147.6,114.3 L 137.6,114.3 L 134.1,114.3 L 137.6,114.3 L 147.6,114.3 L 162.4,114.3 L 180.0,114.3 L 197.6,114.3 L 212.4,114.3 L 227.4,114.3 L 230.9,114.3" stroke="#6a8aa8" stroke-width="0.5" fill="none" opacity="0.55"/>
<path d="M 221.9,117.2 L 218.5,117.2 L 210.9,117.2 L 196.7,117.2 L 180.0,117.2 L 163.3,117.2 L 149.1,117.2 L 139.6,117.2 L 136.3,117.2 L 139.6,117.2 L 149.1,117.2 L 163.3,117.2 L 180.0,117.2 L 196.7,117.2 L 210.9,117.2 L 218.5,117.2 L 221.9,117.2" stroke="#6a8aa8" stroke-width="0.5" fill="none" opacity="0.55"/>
<path d="M 222.7,118.9 L 219.4,118.9 L 210.2,118.9 L 196.3,118.9 L 180.0,118.9 L 163.7,118.9 L 149.8,118.9 L 140.6,118.9 L 137.3,118.9 L 140.6,118.9 L 149.8,118.9 L 163.7,118.9 L 180.0,118.9 L 196.3,118.9 L 210.2,118.9 L 219.4,118.9 L 222.7,118.9" stroke="#6a8aa8" stroke-width="0.5" fill="none" opacity="0.55"/>
<path d="M 219.7,121.7 L 216.6,121.7 L 209.4,121.7 L 195.9,121.7 L 180.0,121.7 L 164.1,121.7 L 150.6,121.7 L 141.6,121.7 L 138.4,121.7 L 141.6,121.7 L 150.6,121.7 L 164.1,121.7 L 180.0,121.7 L 195.9,121.7 L 209.4,121.7 L 216.6,121.7 L 219.7,121.7" stroke="#6a8aa8" stroke-width="0.5" fill="none" opacity="0.55"/>
<path d="M 219.5,132.6 L 216.5,132.6 L 207.9,132.6 L 195.1,132.6 L 180.0,132.6 L 164.9,132.6 L 152.1,132.6 L 143.5,132.6 L 140.5,132.6 L 143.5,132.6 L 152.1,132.6 L 164.9,132.6 L 180.0,132.6 L 195.1,132.6 L 207.9,132.6 L 216.5,132.6 L 219.5,132.6" stroke="#6a8aa8" stroke-width="0.5" fill="none" opacity="0.55"/>
<path d="M 209.3,136.0 L 207.1,136.0 L 200.7,136.0 L 191.2,136.0 L 180.0,136.0 L 168.8,136.0 L 159.3,136.0 L 152.9,136.0 L 150.7,136.0 L 152.9,136.0 L 159.3,136.0 L 168.8,136.0 L 180.0,136.0 L 191.2,136.0 L 200.7,136.0 L 207.1,136.0 L 209.3,136.0" stroke="#6a8aa8" stroke-width="0.5" fill="none" opacity="0.55"/>
<path d="M 213.6,139.9 L 211.1,139.9 L 203.8,139.9 L 192.9,139.9 L 180.0,139.9 L 167.1,139.9 L 156.2,139.9 L 148.9,139.9 L 146.4,139.9 L 148.9,139.9 L 156.2,139.9 L 167.1,139.9 L 180.0,139.9 L 192.9,139.9 L 203.8,139.9 L 211.1,139.9 L 213.6,139.9" stroke="#6a8aa8" stroke-width="0.5" fill="none" opacity="0.55"/>
<path d="M 215.2,149.6 L 212.5,149.6 L 204.9,149.6 L 193.5,149.6 L 180.0,149.6 L 166.5,149.6 L 155.1,149.6 L 147.5,149.6 L 144.8,149.6 L 147.5,149.6 L 155.1,149.6 L 166.5,149.6 L 180.0,149.6 L 193.5,149.6 L 204.9,149.6 L 212.5,149.6 L 215.2,149.6" stroke="#6a8aa8" stroke-width="0.5" fill="none" opacity="0.55"/>
<path d="M 218.4,159.3 L 215.5,159.3 L 207.2,159.3 L 194.7,159.3 L 180.0,159.3 L 165.3,159.3 L 152.8,159.3 L 144.5,159.3 L 141.6,159.3 L 144.5,159.3 L 152.8,159.3 L 165.3,159.3 L 180.0,159.3 L 194.7,159.3 L 207.2,159.3 L 215.5,159.3 L 218.4,159.3" stroke="#6a8aa8" stroke-width="0.5" fill="none" opacity="0.55"/>
<path d="M 221.6,162.0 L 218.4,162.0 L 209.4,162.0 L 195.9,162.0 L 180.0,162.0 L 164.1,162.0 L 150.6,162.0 L 141.6,162.0 L 138.4,162.0 L 141.6,162.0 L 150.6,162.0 L 164.1,162.0 L 180.0,162.0 L 195.9,162.0 L 209.4,162.0 L 218.4,162.0 L 221.6,162.0" stroke="#6a8aa8" stroke-width="0.5" fill="none" opacity="0.55"/>
<path d="M 229.2,165.5 L 225.5,165.5 L 214.8,165.5 L 198.8,165.5 L 180.0,165.5 L 161.2,165.5 L 145.2,165.5 L 134.5,165.5 L 130.8,165.5 L 134.5,165.5 L 145.2,165.5 L 161.2,165.5 L 180.0,165.5 L 198.8,165.5 L 214.8,165.5 L 225.5,165.5 L 229.2,165.5" stroke="#6a8aa8" stroke-width="0.5" fill="none" opacity="0.55"/>
<path d="M 245.6,168.9 L 240.6,168.9 L 226.4,168.9 L 205.1,168.9 L 180.0,168.9 L 154.9,168.9 L 133.6,168.9 L 119.4,168.9 L 114.4,168.9 L 119.4,168.9 L 133.6,168.9 L 154.9,168.9 L 180.0,168.9 L 205.1,168.9 L 226.4,168.9 L 240.6,168.9 L 245.6,168.9" stroke="#6a8aa8" stroke-width="0.5" fill="none" opacity="0.55"/>
<path d="M 251.1,170.9 L 245.7,170.9 L 230.3,170.9 L 207.2,170.9 L 180.0,170.9 L 152.8,170.9 L 129.7,170.9 L 114.3,170.9 L 108.9,170.9 L 114.3,170.9 L 129.7,170.9 L 152.8,170.9 L 180.0,170.9 L 207.2,170.9 L 230.3,170.9 L 245.7,170.9 L 251.1,170.9" stroke="#6a8aa8" stroke-width="0.5" fill="none" opacity="0.55"/>
<path d="M 258.7,196.3 L 252.8,196.3 L 235.7,196.3 L 210.1,196.3 L 180.0,196.3 L 149.9,196.3 L 124.3,196.3 L 107.2,196.3 L 101.3,196.3 L 107.2,196.3 L 124.3,196.3 L 149.9,196.3 L 180.0,196.3 L 210.1,196.3 L 235.7,196.3 L 252.8,196.3 L 258.7,196.3" stroke="#6a8aa8" stroke-width="0.5" fill="none" opacity="0.55"/>
<path d="M 258.7,213.5 L 252.8,213.5 L 235.7,213.5 L 210.1,213.5 L 180.0,213.5 L 149.9,213.5 L 124.3,213.5 L 107.2,213.5 L 101.3,213.5 L 107.2,213.5 L 124.3,213.5 L 149.9,213.5 L 180.0,213.5 L 210.1,213.5 L 235.7,213.5 L 252.8,213.5 L 258.7,213.5" stroke="#6a8aa8" stroke-width="0.5" fill="none" opacity="0.55"/>
<path d="M 256.6,234.2 L 250.7,234.2 L 234.1,234.2 L 209.3,234.2 L 180.0,234.2 L 150.7,234.2 L 125.9,234.2 L 109.3,234.2 L 103.4,234.2 L 109.3,234.2 L 125.9,234.2 L 150.7,234.2 L 180.0,234.2 L 209.3,234.2 L 234.1,234.2 L 250.7,234.2 L 256.6,234.2" stroke="#6a8aa8" stroke-width="0.5" fill="none" opacity="0.55"/>
<path d="M 247.8,251.4 L 242.6,251.4 L 227.9,251.4 L 205.9,251.4 L 180.0,251.4 L 154.1,251.4 L 132.1,251.4 L 117.4,251.4 L 112.2,251.4 L 117.4,251.4 L 132.1,251.4 L 154.1,251.4 L 180.0,251.4 L 205.9,251.4 L 227.9,251.4 L 242.6,251.4 L 247.8,251.4" stroke="#6a8aa8" stroke-width="0.5" fill="none" opacity="0.55"/>
<path d="M 269.6,291.1 L 262.8,291.1 L 243.4,291.1 L 214.3,291.1 L 180.0,291.1 L 145.7,291.1 L 116.6,291.1 L 97.2,291.1 L 90.4,291.1 L 97.2,291.1 L 116.6,291.1 L 145.7,291.1 L 180.0,291.1 L 214.3,291.1 L 243.4,291.1 L 262.8,291.1 L 269.6,291.1" stroke="#6a8aa8" stroke-width="0.5" fill="none" opacity="0.55"/>
<path d="M 277.1,308.3 L 269.7,308.3 L 248.7,308.3 L 217.2,308.3 L 180.0,308.3 L 142.8,308.3 L 111.3,308.3 L 90.3,308.3 L 82.9,308.3 L 90.3,308.3 L 111.3,308.3 L 142.8,308.3 L 180.0,308.3 L 217.2,308.3 L 248.7,308.3 L 269.7,308.3 L 277.1,308.3" stroke="#6a8aa8" stroke-width="0.5" fill="none" opacity="0.55"/>
<path d="M 278.8,347.9 L 271.3,347.9 L 249.9,347.9 L 217.8,347.9 L 180.0,347.9 L 142.2,347.9 L 110.1,347.9 L 88.7,347.9 L 81.2,347.9 L 88.7,347.9 L 110.1,347.9 L 142.2,347.9 L 180.0,347.9 L 217.8,347.9 L 249.9,347.9 L 271.3,347.9 L 278.8,347.9" stroke="#6a8aa8" stroke-width="0.5" fill="none" opacity="0.55"/>
<path d="M 275.7,368.6 L 268.4,368.6 L 247.7,368.6 L 216.6,368.6 L 180.0,368.6 L 143.4,368.6 L 112.3,368.6 L 91.6,368.6 L 84.3,368.6 L 91.6,368.6 L 112.3,368.6 L 143.4,368.6 L 180.0,368.6 L 216.6,368.6 L 247.7,368.6 L 268.4,368.6 L 275.7,368.6" stroke="#6a8aa8" stroke-width="0.5" fill="none" opacity="0.55"/>
<path d="M 227.6,382.4 L 224.0,382.4 L 213.7,382.4 L 198.2,382.4 L 180.0,382.4 L 161.8,382.4 L 146.3,382.4 L 136.0,382.4 L 132.4,382.4 L 136.0,382.4 L 146.3,382.4 L 161.8,382.4 L 180.0,382.4 L 198.2,382.4 L 213.7,382.4 L 224.0,382.4 L 227.6,382.4" stroke="#6a8aa8" stroke-width="0.5" fill="none" opacity="0.55"/>
<path d="M 225.3,446.2 L 221.9,446.2 L 212.1,446.2 L 197.4,446.2 L 180.0,446.2 L 162.6,446.2 L 147.9,446.2 L 138.1,446.2 L 134.7,446.2 L 138.1,446.2 L 147.9,446.2 L 162.6,446.2 L 180.0,446.2 L 197.4,446.2 L 212.1,446.2 L 221.9,446.2 L 225.3,446.2" stroke="#6a8aa8" stroke-width="0.5" fill="none" opacity="0.55"/>
<path d="M 220.8,469.4 L 217.7,469.4 L 208.9,469.4 L 195.6,469.4 L 180.0,469.4 L 164.4,469.4 L 151.1,469.4 L 142.3,469.4 L 139.2,469.4 L 142.3,469.4 L 151.1,469.4 L 164.4,469.4 L 180.0,469.4 L 195.6,469.4 L 208.9,469.4 L 217.7,469.4 L 220.8,469.4" stroke="#6a8aa8" stroke-width="0.5" fill="none" opacity="0.55"/>
<path d="M 215.4,523.7 L 212.7,523.7 L 205.0,523.7 L 193.5,523.7 L 180.0,523.7 L 166.5,523.7 L 155.0,523.7 L 147.3,523.7 L 144.6,523.7 L 147.3,523.7 L 155.0,523.7 L 166.5,523.7 L 180.0,523.7 L 193.5,523.7 L 205.0,523.7 L 212.7,523.7 L 215.4,523.7" stroke="#6a8aa8" stroke-width="0.5" fill="none" opacity="0.55"/>
<path d="M 218.5,550.8 L 215.6,550.8 L 207.3,550.8 L 194.8,550.8 L 180.0,550.8 L 165.2,550.8 L 152.7,550.8 L 144.4,550.8 L 141.5,550.8 L 144.4,550.8 L 152.7,550.8 L 165.2,550.8 L 180.0,550.8 L 194.8,550.8 L 207.3,550.8 L 215.6,550.8 L 218.5,550.8" stroke="#6a8aa8" stroke-width="0.5" fill="none" opacity="0.55"/>
<path d="M 211.7,601.2 L 209.3,601.2 L 202.4,601.2 L 192.1,601.2 L 180.0,601.2 L 167.9,601.2 L 157.6,601.2 L 150.7,601.2 L 148.3,601.2 L 150.7,601.2 L 157.6,601.2 L 167.9,601.2 L 180.0,601.2 L 192.1,601.2 L 202.4,601.2 L 209.3,601.2 L 211.7,601.2" stroke="#6a8aa8" stroke-width="0.5" fill="none" opacity="0.55"/>
<path d="M 204.9,655.5 L 203.0,655.5 L 197.6,655.5 L 189.5,655.5 L 180.0,655.5 L 170.5,655.5 L 162.4,655.5 L 157.0,655.5 L 155.1,655.5 L 157.0,655.5 L 162.4,655.5 L 170.5,655.5 L 180.0,655.5 L 189.5,655.5 L 197.6,655.5 L 203.0,655.5 L 204.9,655.5" stroke="#6a8aa8" stroke-width="0.5" fill="none" opacity="0.55"/>
<path d="M 229.9,668.4 L 226.1,668.4 L 215.3,668.4 L 199.1,668.4 L 180.0,668.4 L 160.9,668.4 L 144.7,668.4 L 133.9,668.4 L 130.1,668.4 L 133.9,668.4 L 144.7,668.4 L 160.9,668.4 L 180.0,668.4 L 199.1,668.4 L 215.3,668.4 L 226.1,668.4 L 229.9,668.4" stroke="#6a8aa8" stroke-width="0.5" fill="none" opacity="0.55"/>
<path d="M 225.3,678.8 L 221.9,678.8 L 212.1,678.8 L 197.4,678.8 L 180.0,678.8 L 162.6,678.8 L 147.9,678.8 L 138.1,678.8 L 134.7,678.8 L 138.1,678.8 L 147.9,678.8 L 162.6,678.8 L 180.0,678.8 L 197.4,678.8 L 212.1,678.8 L 221.9,678.8 L 225.3,678.8" stroke="#6a8aa8" stroke-width="0.5" fill="none" opacity="0.55"/>
<path d="M 196.0,58.5 L 217.3,65.4 L 231.2,66.2 L 230.2,73.1 L 230.2,82.5 L 229.1,97.2 L 228.0,104.1 L 230.9,114.3 L 221.9,117.2 L 222.7,118.9 L 219.7,121.7 L 219.5,132.6 L 209.3,136.0 L 213.6,139.9 L 215.2,149.6 L 218.4,159.3 L 221.6,162.0 L 229.2,165.5 L 245.6,168.9 L 251.1,170.9 L 258.7,196.3 L 258.7,213.5 L 256.6,234.2 L 247.8,251.4 L 269.6,291.1 L 277.1,308.3 L 278.8,347.9 L 275.7,368.6 L 227.6,382.4 L 225.3,446.2 L 220.8,469.4 L 215.4,523.7 L 218.5,550.8 L 211.7,601.2 L 204.9,655.5 L 229.9,668.4 L 225.3,678.8" stroke="#6a8aa8" stroke-width="0.5" fill="none" opacity="0.65"/>
<path d="M 191.3,58.5 L 206.4,65.4 L 216.2,66.2 L 215.5,73.1 L 215.5,82.5 L 214.7,97.2 L 217.1,104.1 L 212.4,114.3 L 210.9,117.2 L 210.2,118.9 L 209.4,121.7 L 207.9,132.6 L 200.7,136.0 L 203.8,139.9 L 204.9,149.6 L 207.2,159.3 L 209.4,162.0 L 214.8,165.5 L 226.4,168.9 L 230.3,170.9 L 235.7,196.3 L 235.7,213.5 L 234.1,234.2 L 227.9,251.4 L 243.4,291.1 L 248.7,308.3 L 249.9,347.9 L 247.7,368.6 L 213.7,382.4 L 212.1,446.2 L 208.9,469.4 L 205.0,523.7 L 207.3,550.8 L 202.4,601.2 L 197.6,655.5 L 215.3,668.4 L 212.1,678.8" stroke="#6a8aa8" stroke-width="0.5" fill="none" opacity="0.65"/>
<path d="M 180.0,58.5 L 180.0,65.4 L 180.0,66.2 L 180.0,73.1 L 180.0,82.5 L 180.0,97.2 L 180.0,104.1 L 180.0,114.3 L 180.0,117.2 L 180.0,118.9 L 180.0,121.7 L 180.0,132.6 L 180.0,136.0 L 180.0,139.9 L 180.0,149.6 L 180.0,159.3 L 180.0,162.0 L 180.0,165.5 L 180.0,168.9 L 180.0,170.9 L 180.0,196.3 L 180.0,213.5 L 180.0,234.2 L 180.0,251.4 L 180.0,291.1 L 180.0,308.3 L 180.0,347.9 L 180.0,368.6 L 180.0,382.4 L 180.0,446.2 L 180.0,469.4 L 180.0,523.7 L 180.0,550.8 L 180.0,601.2 L 180.0,655.5 L 180.0,668.4 L 180.0,678.8" stroke="#6a8aa8" stroke-width="0.5" fill="none" opacity="0.65"/>
<path d="M 168.7,58.5 L 153.6,65.4 L 143.8,66.2 L 144.5,73.1 L 144.5,82.5 L 145.3,97.2 L 146.0,104.1 L 147.6,114.3 L 149.1,117.2 L 149.8,118.9 L 150.6,121.7 L 152.1,132.6 L 159.3,136.0 L 156.2,139.9 L 155.1,149.6 L 152.8,159.3 L 150.6,162.0 L 145.2,165.5 L 133.6,168.9 L 129.7,170.9 L 124.3,196.3 L 124.3,213.5 L 125.9,234.2 L 132.1,251.4 L 116.6,291.1 L 111.3,308.3 L 110.1,347.9 L 112.3,368.6 L 146.3,382.4 L 147.9,446.2 L 151.1,469.4 L 155.0,523.7 L 152.7,550.8 L 157.6,601.2 L 162.4,655.5 L 144.7,668.4 L 147.9,678.8" stroke="#6a8aa8" stroke-width="0.5" fill="none" opacity="0.65"/>
<path d="M 164.0,58.5 L 142.7,65.4 L 128.8,66.2 L 129.8,73.1 L 129.8,82.5 L 130.9,97.2 L 132.0,104.1 L 134.1,114.3 L 136.3,117.2 L 137.3,118.9 L 138.4,121.7 L 140.5,132.6 L 150.7,136.0 L 146.4,139.9 L 144.8,149.6 L 141.6,159.3 L 138.4,162.0 L 130.8,165.5 L 114.4,168.9 L 108.9,170.9 L 101.3,196.3 L 101.3,213.5 L 103.4,234.2 L 112.2,251.4 L 90.4,291.1 L 82.9,308.3 L 81.2,347.9 L 84.3,368.6 L 132.4,382.4 L 134.7,446.2 L 139.2,469.4 L 144.6,523.7 L 141.5,550.8 L 148.3,601.2 L 155.1,655.5 L 130.1,668.4 L 134.7,678.8" stroke="#6a8aa8" stroke-width="0.5" fill="none" opacity="0.65"/>
<path d="M 168.7,58.5 L 153.6,65.4 L 143.8,66.2 L 144.5,73.1 L 144.5,82.5 L 145.3,97.2 L 146.0,104.1 L 147.6,114.3 L 149.1,117.2 L 149.8,118.9 L 150.6,121.7 L 152.1,132.6 L 159.3,136.0 L 156.2,139.9 L 155.1,149.6 L 152.8,159.3 L 150.6,162.0 L 145.2,165.5 L 133.6,168.9 L 129.7,170.9 L 124.3,196.3 L 124.3,213.5 L 125.9,234.2 L 132.1,251.4 L 116.6,291.1 L 111.3,308.3 L 110.1,347.9 L 112.3,368.6 L 146.3,382.4 L 147.9,446.2 L 151.1,469.4 L 155.0,523.7 L 152.7,550.8 L 157.6,601.2 L 162.4,655.5 L 144.7,668.4 L 147.9,678.8" stroke="#6a8aa8" stroke-width="0.5" fill="none" opacity="0.65"/>
<path d="M 180.0,58.5 L 180.0,65.4 L 180.0,66.2 L 180.0,73.1 L 180.0,82.5 L 180.0,97.2 L 180.0,104.1 L 180.0,114.3 L 180.0,117.2 L 180.0,118.9 L 180.0,121.7 L 180.0,132.6 L 180.0,136.0 L 180.0,139.9 L 180.0,149.6 L 180.0,159.3 L 180.0,162.0 L 180.0,165.5 L 180.0,168.9 L 180.0,170.9 L 180.0,196.3 L 180.0,213.5 L 180.0,234.2 L 180.0,251.4 L 180.0,291.1 L 180.0,308.3 L 180.0,347.9 L 180.0,368.6 L 180.0,382.4 L 180.0,446.2 L 180.0,469.4 L 180.0,523.7 L 180.0,550.8 L 180.0,601.2 L 180.0,655.5 L 180.0,668.4 L 180.0,678.8" stroke="#6a8aa8" stroke-width="0.5" fill="none" opacity="0.65"/>
<path d="M 191.3,58.5 L 206.4,65.4 L 216.2,66.2 L 215.5,73.1 L 215.5,82.5 L 214.7,97.2 L 217.1,104.1 L 212.4,114.3 L 210.9,117.2 L 210.2,118.9 L 209.4,121.7 L 207.9,132.6 L 200.7,136.0 L 203.8,139.9 L 204.9,149.6 L 207.2,159.3 L 209.4,162.0 L 214.8,165.5 L 226.4,168.9 L 230.3,170.9 L 235.7,196.3 L 235.7,213.5 L 234.1,234.2 L 227.9,251.4 L 243.4,291.1 L 248.7,308.3 L 249.9,347.9 L 247.7,368.6 L 213.7,382.4 L 212.1,446.2 L 208.9,469.4 L 205.0,523.7 L 207.3,550.8 L 202.4,601.2 L 197.6,655.5 L 215.3,668.4 L 212.1,678.8" stroke="#6a8aa8" stroke-width="0.5" fill="none" opacity="0.65"/>
<path d="M 194.5,174.3 L 190.3,174.3 L 180.0,174.3 L 169.7,174.3 L 165.5,174.3 L 169.7,174.3 L 180.0,174.3 L 190.3,174.3 L 194.5,174.3" stroke="#a0b8c8" stroke-width="0.5" fill="none" opacity="0.6"/>
<path d="M 194.1,220.3 L 190.0,220.3 L 180.0,220.3 L 170.0,220.3 L 165.9,220.3 L 170.0,220.3 L 180.0,220.3 L 190.0,220.3 L 194.1,220.3" stroke="#a0b8c8" stroke-width="0.5" fill="none" opacity="0.6"/>
<path d="M 193.6,266.2 L 189.6,266.2 L 180.0,266.2 L 170.4,266.2 L 166.4,266.2 L 170.4,266.2 L 180.0,266.2 L 189.6,266.2 L 193.6,266.2" stroke="#a0b8c8" stroke-width="0.5" fill="none" opacity="0.6"/>
<path d="M 193.2,312.2 L 189.3,312.2 L 180.0,312.2 L 170.7,312.2 L 166.8,312.2 L 170.7,312.2 L 180.0,312.2 L 189.3,312.2 L 193.2,312.2" stroke="#a0b8c8" stroke-width="0.5" fill="none" opacity="0.6"/>
<path d="M 192.8,358.1 L 189.0,358.1 L 180.0,358.1 L 171.0,358.1 L 167.2,358.1 L 171.0,358.1 L 180.0,358.1 L 189.0,358.1 L 192.8,358.1" stroke="#a0b8c8" stroke-width="0.5" fill="none" opacity="0.6"/>
<path d="M 192.3,404.1 L 188.7,404.1 L 180.0,404.1 L 171.3,404.1 L 167.7,404.1 L 171.3,404.1 L 180.0,404.1 L 188.7,404.1 L 192.3,404.1" stroke="#a0b8c8" stroke-width="0.5" fill="none" opacity="0.6"/>
<path d="M 191.9,450.0 L 188.4,450.0 L 180.0,450.0 L 171.6,450.0 L 168.1,450.0 L 171.6,450.0 L 180.0,450.0 L 188.4,450.0 L 191.9,450.0" stroke="#a0b8c8" stroke-width="0.5" fill="none" opacity="0.6"/>
<path d="M 192.5,470.7 L 188.8,470.7 L 180.0,470.7 L 171.2,470.7 L 167.5,470.7 L 171.2,470.7 L 180.0,470.7 L 188.8,470.7 L 192.5,470.7" stroke="#a0b8c8" stroke-width="0.5" fill="none" opacity="0.6"/>
<path d="M 194.5,174.3 L 194.1,220.3 L 193.6,266.2 L 193.2,312.2 L 192.8,358.1 L 192.3,404.1 L 191.9,450.0 L 192.5,470.7" stroke="#a0b8c8" stroke-width="0.5" fill="none" opacity="0.65"/>
<path d="M 180.0,174.3 L 180.0,220.3 L 180.0,266.2 L 180.0,312.2 L 180.0,358.1 L 180.0,404.1 L 180.0,450.0 L 180.0,470.7" stroke="#a0b8c8" stroke-width="0.5" fill="none" opacity="0.65"/>
<path d="M 165.5,174.3 L 165.9,220.3 L 166.4,266.2 L 166.8,312.2 L 167.2,358.1 L 167.7,404.1 L 168.1,450.0 L 167.5,470.7" stroke="#a0b8c8" stroke-width="0.5" fill="none" opacity="0.65"/>
<path d="M 180.0,174.3 L 180.0,220.3 L 180.0,266.2 L 180.0,312.2 L 180.0,358.1 L 180.0,404.1 L 180.0,450.0 L 180.0,470.7" stroke="#a0b8c8" stroke-width="0.5" fill="none" opacity="0.65"/>
<path d="M 194.5,174.3 L 190.3,174.3 L 180.0,174.3 L 169.7,174.3 L 165.5,174.3 L 169.7,174.3 L 180.0,174.3 L 190.3,174.3 L 194.5,174.3" stroke="#a0b8c8" stroke-width="0.5" fill="none" opacity="0.6"/>
<path d="M 194.1,220.3 L 190.0,220.3 L 180.0,220.3 L 170.0,220.3 L 165.9,220.3 L 170.0,220.3 L 180.0,220.3 L 190.0,220.3 L 194.1,220.3" stroke="#a0b8c8" stroke-width="0.5" fill="none" opacity="0.6"/>
<path d="M 193.6,266.2 L 189.6,266.2 L 180.0,266.2 L 170.4,266.2 L 166.4,266.2 L 170.4,266.2 L 180.0,266.2 L 189.6,266.2 L 193.6,266.2" stroke="#a0b8c8" stroke-width="0.5" fill="none" opacity="0.6"/>
<path d="M 193.2,312.2 L 189.3,312.2 L 180.0,312.2 L 170.7,312.2 L 166.8,312.2 L 170.7,312.2 L 180.0,312.2 L 189.3,312.2 L 193.2,312.2" stroke="#a0b8c8" stroke-width="0.5" fill="none" opacity="0.6"/>
<path d="M 192.8,358.1 L 189.0,358.1 L 180.0,358.1 L 171.0,358.1 L 167.2,358.1 L 171.0,358.1 L 180.0,358.1 L 189.0,358.1 L 192.8,358.1" stroke="#a0b8c8" stroke-width="0.5" fill="none" opacity="0.6"/>
<path d="M 192.3,404.1 L 188.7,404.1 L 180.0,404.1 L 171.3,404.1 L 167.7,404.1 L 171.3,404.1 L 180.0,404.1 L 188.7,404.1 L 192.3,404.1" stroke="#a0b8c8" stroke-width="0.5" fill="none" opacity="0.6"/>
<path d="M 191.9,450.0 L 188.4,450.0 L 180.0,450.0 L 171.6,450.0 L 168.1,450.0 L 171.6,450.0 L 180.0,450.0 L 188.4,450.0 L 191.9,450.0" stroke="#a0b8c8" stroke-width="0.5" fill="none" opacity="0.6"/>
<path d="M 192.5,470.7 L 188.8,470.7 L 180.0,470.7 L 171.2,470.7 L 167.5,470.7 L 171.2,470.7 L 180.0,470.7 L 188.8,470.7 L 192.5,470.7" stroke="#a0b8c8" stroke-width="0.5" fill="none" opacity="0.6"/>
<path d="M 194.5,174.3 L 194.1,220.3 L 193.6,266.2 L 193.2,312.2 L 192.8,358.1 L 192.3,404.1 L 191.9,450.0 L 192.5,470.7" stroke="#a0b8c8" stroke-width="0.5" fill="none" opacity="0.65"/>
<path d="M 180.0,174.3 L 180.0,220.3 L 180.0,266.2 L 180.0,312.2 L 180.0,358.1 L 180.0,404.1 L 180.0,450.0 L 180.0,470.7" stroke="#a0b8c8" stroke-width="0.5" fill="none" opacity="0.65"/>
<path d="M 165.5,174.3 L 165.9,220.3 L 166.4,266.2 L 166.8,312.2 L 167.2,358.1 L 167.7,404.1 L 168.1,450.0 L 167.5,470.7" stroke="#a0b8c8" stroke-width="0.5" fill="none" opacity="0.65"/>
<path d="M 180.0,174.3 L 180.0,220.3 L 180.0,266.2 L 180.0,312.2 L 180.0,358.1 L 180.0,404.1 L 180.0,450.0 L 180.0,470.7" stroke="#a0b8c8" stroke-width="0.5" fill="none" opacity="0.65"/>
<path d="M 164.0,58.0 L 128.8,66.0 L 129.8,74.0 L 129.8,82.0 L 130.9,98.0 L 132.0,106.0 L 134.1,114.0 L 136.3,118.0 L 138.4,122.0 L 140.5,134.0 L 146.4,138.0 L 144.8,150.0 L 141.6,158.0 L 138.4,162.0 L 130.8,166.0 L 108.9,170.0 L 165.5,174.0 L 101.3,198.0 L 101.3,214.0 L 165.9,222.0 L 103.4,234.0 L 112.2,250.0 L 166.4,266.0 L 90.4,290.0 L 82.9,310.0 L 166.8,314.0 L 81.2,346.0 L 167.2,358.0 L 84.3,370.0 L 132.4,382.0 L 167.7,406.0 L 134.7,446.0 L 168.1,450.0 L 139.2,470.0 L 144.6,522.0 L 141.5,550.0 L 148.3,602.0 L 155.1,654.0 L 130.1,670.0 L 134.7,678.0 L 225.3,678.0 L 229.9,670.0 L 204.9,654.0 L 211.7,602.0 L 218.5,550.0 L 215.4,522.0 L 220.8,470.0 L 191.9,450.0 L 225.3,446.0 L 192.3,406.0 L 227.6,382.0 L 275.7,370.0 L 192.8,358.0 L 278.8,346.0 L 193.2,314.0 L 277.1,310.0 L 269.6,290.0 L 193.6,266.0 L 247.8,250.0 L 256.6,234.0 L 194.1,222.0 L 258.7,214.0 L 258.7,198.0 L 194.5,174.0 L 251.1,170.0 L 229.2,166.0 L 221.6,162.0 L 218.4,158.0 L 215.2,150.0 L 213.6,138.0 L 219.5,134.0 L 219.7,122.0 L 222.7,118.0 L 230.9,114.0 L 228.0,106.0 L 229.1,98.0 L 230.2,82.0 L 230.2,74.0 L 231.2,66.0 L 196.0,58.0 Z" fill="#c8a880" fill-opacity="0.13" stroke="#e0c898" stroke-width="1.2" stroke-opacity="0.55"/>
<line x1="18" y1="58.5" x2="24" y2="58.5" stroke="#dd8855" stroke-width="1.2"/>
<text x="14" y="61.5" fill="#dd8855" text-anchor="end">crown</text>
<line x1="18" y1="82.5" x2="24" y2="82.5" stroke="#dd8855" stroke-width="1.2"/>
<text x="14" y="85.5" fill="#dd8855" text-anchor="end">brow</text>
<line x1="18" y1="97.2" x2="24" y2="97.2" stroke="#dd8855" stroke-width="1.2"/>
<text x="14" y="100.2" fill="#dd8855" text-anchor="end">eye</text>
<line x1="18" y1="114.3" x2="24" y2="114.3" stroke="#dd8855" stroke-width="1.2"/>
<text x="14" y="117.3" fill="#dd8855" text-anchor="end">nose</text>
<line x1="18" y1="118.9" x2="24" y2="118.9" stroke="#dd8855" stroke-width="1.2"/>
<text x="14" y="121.9" fill="#dd8855" text-anchor="end">mouth</text>
<line x1="18" y1="136.0" x2="24" y2="136.0" stroke="#dd8855" stroke-width="1.2"/>
<text x="14" y="139.0" fill="#dd8855" text-anchor="end">chin</text>
<line x1="18" y1="170.9" x2="24" y2="170.9" stroke="#dd8855" stroke-width="1.2"/>
<text x="14" y="173.9" fill="#dd8855" text-anchor="end">clav</text>
<line x1="18" y1="213.5" x2="24" y2="213.5" stroke="#dd8855" stroke-width="1.2"/>
<text x="14" y="216.5" fill="#dd8855" text-anchor="end">nipple</text>
<line x1="18" y1="291.1" x2="24" y2="291.1" stroke="#dd8855" stroke-width="1.2"/>
<text x="14" y="294.1" fill="#dd8855" text-anchor="end">navel</text>
<line x1="18" y1="368.6" x2="24" y2="368.6" stroke="#dd8855" stroke-width="1.2"/>
<text x="14" y="371.6" fill="#dd8855" text-anchor="end">crotch</text>
<line x1="18" y1="523.7" x2="24" y2="523.7" stroke="#dd8855" stroke-width="1.2"/>
<text x="14" y="526.7" fill="#dd8855" text-anchor="end">knee</text>
<line x1="18" y1="655.5" x2="24" y2="655.5" stroke="#dd8855" stroke-width="1.2"/>
<text x="14" y="658.5" fill="#dd8855" text-anchor="end">ankle</text>
<text x="6" y="360.0" fill="#666" transform="rotate(-90 6 360.0)">Y (height, metres)</text>
</svg>